<svg xmlns="http://www.w3.org/2000/svg" xmlns:xlink="http://www.w3.org/1999/xlink" width="640" zoomAndPan="magnify" viewBox="0 0 480 149.999998" height="200" preserveAspectRatio="xMidYMid meet" version="1.0"><defs><g/><clipPath id="633f63ea26"><path d="M 0.160156 11 L 36 11 L 36 46 L 0.160156 46 Z M 0.160156 11 " clip-rule="nonzero"/></clipPath><clipPath id="14040e27d2"><rect x="0" width="431" y="0" height="82"/></clipPath></defs><rect x="-48" width="576" fill="#ffffff" y="-15" height="179.999997" fill-opacity="1"/><rect x="-48" width="576" fill="#3e2c1c" y="-15" height="179.999997" fill-opacity="1"/><g transform="matrix(1, 0, 0, 1, 26, 34)"><g clip-path="url(#14040e27d2)"><g clip-path="url(#633f63ea26)"><g fill="#d8c3a5" fill-opacity="1"><g transform="translate(1.859595, 45.288107)"><g><path d="M 33.84375 0 L 19.765625 0 L 19.765625 -1.6875 C 21.003906 -1.769531 22.03125 -1.929688 22.84375 -2.171875 C 23.664062 -2.410156 24.078125 -2.703125 24.078125 -3.046875 C 24.078125 -3.191406 24.0625 -3.363281 24.03125 -3.5625 C 24 -3.769531 23.953125 -3.957031 23.890625 -4.125 L 21.078125 -11.6875 L 9.234375 -11.6875 C 8.796875 -10.582031 8.4375 -9.613281 8.15625 -8.78125 C 7.875 -7.957031 7.625 -7.195312 7.40625 -6.5 C 7.195312 -5.820312 7.050781 -5.265625 6.96875 -4.828125 C 6.894531 -4.398438 6.859375 -4.050781 6.859375 -3.78125 C 6.859375 -3.144531 7.359375 -2.648438 8.359375 -2.296875 C 9.359375 -1.953125 10.488281 -1.75 11.75 -1.6875 L 11.75 0 L -0.984375 0 L -0.984375 -1.6875 C -0.566406 -1.71875 -0.0507812 -1.804688 0.5625 -1.953125 C 1.1875 -2.109375 1.695312 -2.316406 2.09375 -2.578125 C 2.726562 -3.003906 3.21875 -3.453125 3.5625 -3.921875 C 3.914062 -4.390625 4.257812 -5.035156 4.59375 -5.859375 C 6.289062 -10.097656 8.164062 -14.859375 10.21875 -20.140625 C 12.269531 -25.429688 14.097656 -30.144531 15.703125 -34.28125 L 17.609375 -34.28125 L 28.875 -5.125 C 29.101562 -4.5 29.367188 -3.992188 29.671875 -3.609375 C 29.972656 -3.234375 30.394531 -2.863281 30.9375 -2.5 C 31.300781 -2.28125 31.773438 -2.09375 32.359375 -1.9375 C 32.953125 -1.789062 33.445312 -1.707031 33.84375 -1.6875 Z M 20.21875 -13.8125 L 15.09375 -26.921875 L 10.078125 -13.8125 Z M 20.21875 -13.8125 "/></g></g></g></g><g fill="#d8c3a5" fill-opacity="1"><g transform="translate(35.992887, 45.288107)"><g><path d="M 12.71875 0 L 1.265625 0 L 1.265625 -1.578125 C 1.628906 -1.609375 2.015625 -1.640625 2.421875 -1.671875 C 2.835938 -1.710938 3.179688 -1.773438 3.453125 -1.859375 C 3.898438 -2.003906 4.234375 -2.253906 4.453125 -2.609375 C 4.671875 -2.960938 4.78125 -3.425781 4.78125 -4 L 4.78125 -31.203125 C 4.78125 -31.773438 4.65625 -32.3125 4.40625 -32.8125 C 4.164062 -33.3125 3.847656 -33.703125 3.453125 -33.984375 C 3.171875 -34.179688 2.644531 -34.359375 1.875 -34.515625 C 1.113281 -34.671875 0.503906 -34.765625 0.046875 -34.796875 L 0.046875 -36.328125 L 8.890625 -36.875 L 9.21875 -36.515625 L 9.21875 -4.28125 C 9.21875 -3.726562 9.320312 -3.269531 9.53125 -2.90625 C 9.738281 -2.550781 10.070312 -2.28125 10.53125 -2.09375 C 10.875 -1.9375 11.21875 -1.816406 11.5625 -1.734375 C 11.90625 -1.660156 12.289062 -1.609375 12.71875 -1.578125 Z M 12.71875 0 "/></g></g></g><g fill="#d8c3a5" fill-opacity="1"><g transform="translate(51.361965, 45.288107)"><g><path d="M 22.578125 -5.53125 C 21.597656 -3.65625 20.28125 -2.160156 18.625 -1.046875 C 16.976562 0.0664062 15.082031 0.625 12.9375 0.625 C 11.039062 0.625 9.378906 0.289062 7.953125 -0.375 C 6.535156 -1.039062 5.367188 -1.945312 4.453125 -3.09375 C 3.535156 -4.238281 2.847656 -5.570312 2.390625 -7.09375 C 1.941406 -8.625 1.71875 -10.238281 1.71875 -11.9375 C 1.71875 -13.457031 1.957031 -14.953125 2.4375 -16.421875 C 2.925781 -17.890625 3.640625 -19.210938 4.578125 -20.390625 C 5.484375 -21.515625 6.601562 -22.421875 7.9375 -23.109375 C 9.28125 -23.804688 10.785156 -24.15625 12.453125 -24.15625 C 14.171875 -24.15625 15.640625 -23.882812 16.859375 -23.34375 C 18.085938 -22.800781 19.082031 -22.0625 19.84375 -21.125 C 20.570312 -20.238281 21.113281 -19.191406 21.46875 -17.984375 C 21.832031 -16.773438 22.015625 -15.460938 22.015625 -14.046875 L 22.015625 -12.484375 L 6.453125 -12.484375 C 6.453125 -10.941406 6.597656 -9.539062 6.890625 -8.28125 C 7.191406 -7.03125 7.65625 -5.929688 8.28125 -4.984375 C 8.90625 -4.054688 9.71875 -3.328125 10.71875 -2.796875 C 11.71875 -2.265625 12.910156 -2 14.296875 -2 C 15.703125 -2 16.914062 -2.328125 17.9375 -2.984375 C 18.96875 -3.648438 19.957031 -4.835938 20.90625 -6.546875 Z M 17.3125 -14.484375 C 17.3125 -15.367188 17.234375 -16.316406 17.078125 -17.328125 C 16.929688 -18.347656 16.691406 -19.203125 16.359375 -19.890625 C 15.992188 -20.617188 15.492188 -21.210938 14.859375 -21.671875 C 14.222656 -22.128906 13.40625 -22.359375 12.40625 -22.359375 C 10.738281 -22.359375 9.351562 -21.664062 8.25 -20.28125 C 7.144531 -18.894531 6.546875 -16.960938 6.453125 -14.484375 Z M 17.3125 -14.484375 "/></g></g></g><g fill="#d8c3a5" fill-opacity="1"><g transform="translate(76.351274, 45.288107)"><g><path d="M 24.34375 0 L 13.578125 0 L 13.578125 -1.578125 C 14.296875 -1.648438 14.90625 -1.722656 15.40625 -1.796875 C 15.90625 -1.878906 16.15625 -2.085938 16.15625 -2.421875 C 16.15625 -2.566406 16.070312 -2.789062 15.90625 -3.09375 C 15.75 -3.394531 15.59375 -3.675781 15.4375 -3.9375 C 15.039062 -4.550781 14.492188 -5.378906 13.796875 -6.421875 C 13.109375 -7.460938 12.265625 -8.703125 11.265625 -10.140625 C 10.441406 -9.109375 9.679688 -8.101562 8.984375 -7.125 C 8.285156 -6.15625 7.550781 -5.125 6.78125 -4.03125 C 6.675781 -3.863281 6.5625 -3.660156 6.4375 -3.421875 C 6.320312 -3.191406 6.265625 -3.003906 6.265625 -2.859375 C 6.265625 -2.503906 6.488281 -2.210938 6.9375 -1.984375 C 7.394531 -1.753906 8.078125 -1.601562 8.984375 -1.53125 L 8.984375 0 L 0.28125 0 L 0.28125 -1.484375 C 1.363281 -1.796875 2.234375 -2.175781 2.890625 -2.625 C 3.546875 -3.082031 4.15625 -3.644531 4.71875 -4.3125 C 5.207031 -4.945312 5.890625 -5.816406 6.765625 -6.921875 C 7.648438 -8.035156 8.789062 -9.546875 10.1875 -11.453125 C 9.382812 -12.617188 8.398438 -14.035156 7.234375 -15.703125 C 6.066406 -17.378906 5.097656 -18.773438 4.328125 -19.890625 C 3.921875 -20.492188 3.453125 -20.976562 2.921875 -21.34375 C 2.390625 -21.71875 1.640625 -21.90625 0.671875 -21.90625 L 0.671875 -23.484375 L 10.890625 -23.484375 L 10.890625 -21.90625 C 10.378906 -21.90625 9.875 -21.875 9.375 -21.8125 C 8.882812 -21.75 8.640625 -21.609375 8.640625 -21.390625 C 8.640625 -21.242188 8.6875 -21.082031 8.78125 -20.90625 C 8.882812 -20.738281 9.003906 -20.550781 9.140625 -20.34375 C 9.492188 -19.800781 10.039062 -18.96875 10.78125 -17.84375 C 11.519531 -16.71875 12.316406 -15.523438 13.171875 -14.265625 C 13.722656 -15.023438 14.367188 -15.910156 15.109375 -16.921875 C 15.847656 -17.941406 16.53125 -18.914062 17.15625 -19.84375 C 17.21875 -19.957031 17.28125 -20.097656 17.34375 -20.265625 C 17.40625 -20.429688 17.4375 -20.59375 17.4375 -20.75 C 17.4375 -21.082031 17.160156 -21.347656 16.609375 -21.546875 C 16.066406 -21.742188 15.546875 -21.882812 15.046875 -21.96875 L 15.046875 -23.484375 L 23.71875 -23.484375 L 23.71875 -22.015625 C 22.5 -21.691406 21.546875 -21.3125 20.859375 -20.875 C 20.179688 -20.4375 19.601562 -19.929688 19.125 -19.359375 C 18.601562 -18.710938 17.976562 -17.910156 17.25 -16.953125 C 16.53125 -16.003906 15.519531 -14.671875 14.21875 -12.953125 C 15.664062 -10.921875 16.84375 -9.253906 17.75 -7.953125 C 18.65625 -6.648438 19.566406 -5.3125 20.484375 -3.9375 C 20.941406 -3.226562 21.453125 -2.671875 22.015625 -2.265625 C 22.578125 -1.867188 23.351562 -1.640625 24.34375 -1.578125 Z M 24.34375 0 "/></g></g></g><g fill="#d8c3a5" fill-opacity="1"><g transform="translate(102.388331, 45.288107)"><g><path d="M 23.96875 -0.421875 C 23.21875 -0.160156 22.5625 0.0507812 22 0.21875 C 21.4375 0.382812 20.796875 0.46875 20.078125 0.46875 C 18.835938 0.46875 17.847656 0.179688 17.109375 -0.390625 C 16.367188 -0.972656 15.898438 -1.820312 15.703125 -2.9375 L 15.546875 -2.9375 C 14.515625 -1.789062 13.40625 -0.914062 12.21875 -0.3125 C 11.039062 0.289062 9.617188 0.59375 7.953125 0.59375 C 6.191406 0.59375 4.742188 0.0546875 3.609375 -1.015625 C 2.472656 -2.097656 1.90625 -3.515625 1.90625 -5.265625 C 1.90625 -6.171875 2.03125 -6.976562 2.28125 -7.6875 C 2.539062 -8.40625 2.925781 -9.050781 3.4375 -9.625 C 3.832031 -10.101562 4.351562 -10.523438 5 -10.890625 C 5.65625 -11.265625 6.269531 -11.566406 6.84375 -11.796875 C 7.550781 -12.066406 8.992188 -12.566406 11.171875 -13.296875 C 13.359375 -14.023438 14.832031 -14.59375 15.59375 -15 L 15.59375 -17.359375 C 15.59375 -17.566406 15.550781 -17.960938 15.46875 -18.546875 C 15.382812 -19.140625 15.195312 -19.695312 14.90625 -20.21875 C 14.59375 -20.8125 14.144531 -21.320312 13.5625 -21.75 C 12.988281 -22.1875 12.164062 -22.40625 11.09375 -22.40625 C 10.363281 -22.40625 9.6875 -22.28125 9.0625 -22.03125 C 8.4375 -21.789062 7.992188 -21.535156 7.734375 -21.265625 C 7.734375 -20.953125 7.804688 -20.484375 7.953125 -19.859375 C 8.109375 -19.242188 8.1875 -18.675781 8.1875 -18.15625 C 8.1875 -17.59375 7.9375 -17.082031 7.4375 -16.625 C 6.9375 -16.164062 6.242188 -15.9375 5.359375 -15.9375 C 4.566406 -15.9375 3.984375 -16.21875 3.609375 -16.78125 C 3.234375 -17.34375 3.046875 -17.972656 3.046875 -18.671875 C 3.046875 -19.398438 3.300781 -20.097656 3.8125 -20.765625 C 4.332031 -21.429688 5.003906 -22.03125 5.828125 -22.5625 C 6.546875 -23 7.410156 -23.375 8.421875 -23.6875 C 9.441406 -24 10.4375 -24.15625 11.40625 -24.15625 C 12.738281 -24.15625 13.898438 -24.0625 14.890625 -23.875 C 15.890625 -23.695312 16.796875 -23.304688 17.609375 -22.703125 C 18.410156 -22.109375 19.019531 -21.304688 19.4375 -20.296875 C 19.863281 -19.296875 20.078125 -18 20.078125 -16.40625 C 20.078125 -14.132812 20.050781 -12.117188 20 -10.359375 C 19.957031 -8.609375 19.9375 -6.695312 19.9375 -4.625 C 19.9375 -4 20.039062 -3.503906 20.25 -3.140625 C 20.46875 -2.773438 20.800781 -2.46875 21.25 -2.21875 C 21.488281 -2.070312 21.863281 -1.988281 22.375 -1.96875 C 22.894531 -1.957031 23.425781 -1.953125 23.96875 -1.953125 Z M 15.65625 -13 C 14.300781 -12.601562 13.113281 -12.210938 12.09375 -11.828125 C 11.082031 -11.453125 10.140625 -10.976562 9.265625 -10.40625 C 8.472656 -9.863281 7.84375 -9.222656 7.375 -8.484375 C 6.914062 -7.753906 6.6875 -6.878906 6.6875 -5.859375 C 6.6875 -4.535156 7.03125 -3.566406 7.71875 -2.953125 C 8.414062 -2.335938 9.296875 -2.03125 10.359375 -2.03125 C 11.484375 -2.03125 12.472656 -2.300781 13.328125 -2.84375 C 14.191406 -3.394531 14.914062 -4.039062 15.5 -4.78125 Z M 15.65625 -13 "/></g></g></g><g fill="#d8c3a5" fill-opacity="1"><g transform="translate(128.377763, 45.288107)"><g><path d="M 27.65625 0 L 16.15625 0 L 16.15625 -1.578125 C 16.519531 -1.609375 16.914062 -1.640625 17.34375 -1.671875 C 17.78125 -1.703125 18.144531 -1.765625 18.4375 -1.859375 C 18.882812 -2.003906 19.210938 -2.253906 19.421875 -2.609375 C 19.640625 -2.960938 19.75 -3.425781 19.75 -4 L 19.75 -16.078125 C 19.75 -17.742188 19.351562 -19.03125 18.5625 -19.9375 C 17.78125 -20.84375 16.828125 -21.296875 15.703125 -21.296875 C 14.859375 -21.296875 14.085938 -21.164062 13.390625 -20.90625 C 12.691406 -20.644531 12.070312 -20.320312 11.53125 -19.9375 C 11.007812 -19.570312 10.59375 -19.175781 10.28125 -18.75 C 9.96875 -18.332031 9.738281 -18 9.59375 -17.75 L 9.59375 -4.234375 C 9.59375 -3.703125 9.703125 -3.257812 9.921875 -2.90625 C 10.148438 -2.550781 10.488281 -2.28125 10.9375 -2.09375 C 11.269531 -1.9375 11.628906 -1.816406 12.015625 -1.734375 C 12.398438 -1.660156 12.800781 -1.609375 13.21875 -1.578125 L 13.21875 0 L 1.71875 0 L 1.71875 -1.578125 C 2.082031 -1.609375 2.457031 -1.640625 2.84375 -1.671875 C 3.238281 -1.703125 3.578125 -1.765625 3.859375 -1.859375 C 4.304688 -2.003906 4.632812 -2.253906 4.84375 -2.609375 C 5.0625 -2.960938 5.171875 -3.425781 5.171875 -4 L 5.171875 -18.5 C 5.171875 -19.039062 5.054688 -19.535156 4.828125 -19.984375 C 4.597656 -20.441406 4.273438 -20.816406 3.859375 -21.109375 C 3.554688 -21.296875 3.195312 -21.429688 2.78125 -21.515625 C 2.375 -21.609375 1.929688 -21.671875 1.453125 -21.703125 L 1.453125 -23.25 L 9.265625 -23.765625 L 9.59375 -23.4375 L 9.59375 -20.125 L 9.71875 -20.125 C 10.101562 -20.507812 10.578125 -20.96875 11.140625 -21.5 C 11.710938 -22.03125 12.253906 -22.460938 12.765625 -22.796875 C 13.347656 -23.171875 14.046875 -23.484375 14.859375 -23.734375 C 15.671875 -23.992188 16.585938 -24.125 17.609375 -24.125 C 19.859375 -24.125 21.523438 -23.421875 22.609375 -22.015625 C 23.703125 -20.609375 24.25 -18.738281 24.25 -16.40625 L 24.25 -4.1875 C 24.25 -3.632812 24.34375 -3.1875 24.53125 -2.84375 C 24.71875 -2.5 25.046875 -2.234375 25.515625 -2.046875 C 25.890625 -1.890625 26.21875 -1.78125 26.5 -1.71875 C 26.78125 -1.65625 27.164062 -1.609375 27.65625 -1.578125 Z M 27.65625 0 "/></g></g></g><g fill="#d8c3a5" fill-opacity="1"><g transform="translate(158.605812, 45.288107)"><g><path d="M 27.4375 -0.421875 L 19.25 0.09375 L 18.890625 -0.234375 L 18.890625 -2.421875 L 18.703125 -2.484375 C 17.867188 -1.554688 16.84375 -0.796875 15.625 -0.203125 C 14.414062 0.378906 13.171875 0.671875 11.890625 0.671875 C 10.554688 0.671875 9.265625 0.375 8.015625 -0.21875 C 6.765625 -0.820312 5.679688 -1.660156 4.765625 -2.734375 C 3.828125 -3.828125 3.082031 -5.144531 2.53125 -6.6875 C 1.988281 -8.226562 1.71875 -9.929688 1.71875 -11.796875 C 1.71875 -13.492188 2.007812 -15.101562 2.59375 -16.625 C 3.1875 -18.144531 4 -19.476562 5.03125 -20.625 C 6 -21.6875 7.179688 -22.535156 8.578125 -23.171875 C 9.984375 -23.804688 11.421875 -24.125 12.890625 -24.125 C 13.984375 -24.125 15.054688 -23.984375 16.109375 -23.703125 C 17.171875 -23.429688 18.082031 -23.082031 18.84375 -22.65625 L 18.84375 -30.828125 C 18.84375 -31.492188 18.726562 -32.097656 18.5 -32.640625 C 18.28125 -33.191406 17.972656 -33.609375 17.578125 -33.890625 C 17.128906 -34.191406 16.53125 -34.410156 15.78125 -34.546875 C 15.03125 -34.679688 14.21875 -34.78125 13.34375 -34.84375 L 13.34375 -36.328125 L 22.9375 -36.875 L 23.296875 -36.515625 L 23.296875 -4.828125 C 23.296875 -4.273438 23.398438 -3.800781 23.609375 -3.40625 C 23.828125 -3.019531 24.144531 -2.691406 24.5625 -2.421875 C 24.863281 -2.234375 25.296875 -2.113281 25.859375 -2.0625 C 26.429688 -2.019531 26.957031 -1.992188 27.4375 -1.984375 Z M 18.84375 -4.546875 L 18.84375 -18.296875 C 18.71875 -18.703125 18.507812 -19.144531 18.21875 -19.625 C 17.9375 -20.101562 17.582031 -20.539062 17.15625 -20.9375 C 16.6875 -21.332031 16.140625 -21.660156 15.515625 -21.921875 C 14.898438 -22.179688 14.179688 -22.3125 13.359375 -22.3125 C 12.410156 -22.3125 11.535156 -22.066406 10.734375 -21.578125 C 9.929688 -21.085938 9.21875 -20.378906 8.59375 -19.453125 C 8.007812 -18.566406 7.546875 -17.4375 7.203125 -16.0625 C 6.859375 -14.6875 6.6875 -13.164062 6.6875 -11.5 C 6.6875 -10.164062 6.8125 -8.953125 7.0625 -7.859375 C 7.320312 -6.773438 7.753906 -5.765625 8.359375 -4.828125 C 8.910156 -3.941406 9.617188 -3.226562 10.484375 -2.6875 C 11.359375 -2.144531 12.390625 -1.875 13.578125 -1.875 C 14.847656 -1.875 15.898438 -2.148438 16.734375 -2.703125 C 17.566406 -3.265625 18.269531 -3.878906 18.84375 -4.546875 Z M 18.84375 -4.546875 "/></g></g></g><g fill="#d8c3a5" fill-opacity="1"><g transform="translate(188.024237, 45.288107)"><g><path d="M 19.703125 -20.453125 C 19.703125 -19.648438 19.5 -18.929688 19.09375 -18.296875 C 18.695312 -17.671875 18.085938 -17.359375 17.265625 -17.359375 C 16.378906 -17.359375 15.703125 -17.585938 15.234375 -18.046875 C 14.765625 -18.515625 14.53125 -19.023438 14.53125 -19.578125 C 14.53125 -19.929688 14.554688 -20.25 14.609375 -20.53125 C 14.671875 -20.8125 14.722656 -21.097656 14.765625 -21.390625 C 14.015625 -21.390625 13.140625 -21.085938 12.140625 -20.484375 C 11.140625 -19.878906 10.289062 -19.019531 9.59375 -17.90625 L 9.59375 -4.234375 C 9.59375 -3.679688 9.695312 -3.226562 9.90625 -2.875 C 10.125 -2.53125 10.46875 -2.269531 10.9375 -2.09375 C 11.332031 -1.9375 11.84375 -1.816406 12.46875 -1.734375 C 13.09375 -1.660156 13.632812 -1.609375 14.09375 -1.578125 L 14.09375 0 L 1.71875 0 L 1.71875 -1.578125 C 2.082031 -1.609375 2.457031 -1.640625 2.84375 -1.671875 C 3.238281 -1.703125 3.578125 -1.765625 3.859375 -1.859375 C 4.304688 -2.003906 4.632812 -2.253906 4.84375 -2.609375 C 5.0625 -2.960938 5.171875 -3.425781 5.171875 -4 L 5.171875 -18.5 C 5.171875 -19 5.054688 -19.484375 4.828125 -19.953125 C 4.597656 -20.429688 4.273438 -20.816406 3.859375 -21.109375 C 3.554688 -21.296875 3.195312 -21.429688 2.78125 -21.515625 C 2.375 -21.609375 1.929688 -21.671875 1.453125 -21.703125 L 1.453125 -23.25 L 9.265625 -23.765625 L 9.59375 -23.4375 L 9.59375 -20.125 L 9.71875 -20.125 C 10.695312 -21.414062 11.789062 -22.394531 13 -23.0625 C 14.207031 -23.726562 15.3125 -24.0625 16.3125 -24.0625 C 17.3125 -24.0625 18.125 -23.734375 18.75 -23.078125 C 19.382812 -22.429688 19.703125 -21.554688 19.703125 -20.453125 Z M 19.703125 -20.453125 "/></g></g></g><g fill="#d8c3a5" fill-opacity="1"><g transform="translate(209.417866, 45.288107)"><g><path d="M 22.578125 -5.53125 C 21.597656 -3.65625 20.28125 -2.160156 18.625 -1.046875 C 16.976562 0.0664062 15.082031 0.625 12.9375 0.625 C 11.039062 0.625 9.378906 0.289062 7.953125 -0.375 C 6.535156 -1.039062 5.367188 -1.945312 4.453125 -3.09375 C 3.535156 -4.238281 2.847656 -5.570312 2.390625 -7.09375 C 1.941406 -8.625 1.71875 -10.238281 1.71875 -11.9375 C 1.71875 -13.457031 1.957031 -14.953125 2.4375 -16.421875 C 2.925781 -17.890625 3.640625 -19.210938 4.578125 -20.390625 C 5.484375 -21.515625 6.601562 -22.421875 7.9375 -23.109375 C 9.28125 -23.804688 10.785156 -24.15625 12.453125 -24.15625 C 14.171875 -24.15625 15.640625 -23.882812 16.859375 -23.34375 C 18.085938 -22.800781 19.082031 -22.0625 19.84375 -21.125 C 20.570312 -20.238281 21.113281 -19.191406 21.46875 -17.984375 C 21.832031 -16.773438 22.015625 -15.460938 22.015625 -14.046875 L 22.015625 -12.484375 L 6.453125 -12.484375 C 6.453125 -10.941406 6.597656 -9.539062 6.890625 -8.28125 C 7.191406 -7.03125 7.65625 -5.929688 8.28125 -4.984375 C 8.90625 -4.054688 9.71875 -3.328125 10.71875 -2.796875 C 11.71875 -2.265625 12.910156 -2 14.296875 -2 C 15.703125 -2 16.914062 -2.328125 17.9375 -2.984375 C 18.96875 -3.648438 19.957031 -4.835938 20.90625 -6.546875 Z M 17.3125 -14.484375 C 17.3125 -15.367188 17.234375 -16.316406 17.078125 -17.328125 C 16.929688 -18.347656 16.691406 -19.203125 16.359375 -19.890625 C 15.992188 -20.617188 15.492188 -21.210938 14.859375 -21.671875 C 14.222656 -22.128906 13.40625 -22.359375 12.40625 -22.359375 C 10.738281 -22.359375 9.351562 -21.664062 8.25 -20.28125 C 7.144531 -18.894531 6.546875 -16.960938 6.453125 -14.484375 Z M 17.3125 -14.484375 "/></g></g></g><g fill="#d8c3a5" fill-opacity="1"><g transform="translate(234.407175, 45.288107)"><g/></g></g><g fill="#d8c3a5" fill-opacity="1"><g transform="translate(247.585507, 45.288107)"><g><path d="M 23.96875 -32.109375 C 23.519531 -32.085938 22.960938 -32.023438 22.296875 -31.921875 C 21.640625 -31.828125 21.082031 -31.695312 20.625 -31.53125 C 20.082031 -31.34375 19.71875 -31.023438 19.53125 -30.578125 C 19.34375 -30.140625 19.25 -29.65625 19.25 -29.125 L 19.25 -9.09375 C 19.25 -8.050781 19.035156 -6.941406 18.609375 -5.765625 C 18.191406 -4.585938 17.578125 -3.539062 16.765625 -2.625 C 15.828125 -1.539062 14.710938 -0.695312 13.421875 -0.09375 C 12.128906 0.507812 10.648438 0.8125 8.984375 0.8125 C 6.390625 0.8125 4.285156 0.0859375 2.671875 -1.359375 C 1.066406 -2.816406 0.265625 -4.773438 0.265625 -7.234375 C 0.265625 -8.316406 0.539062 -9.273438 1.09375 -10.109375 C 1.644531 -10.941406 2.457031 -11.359375 3.53125 -11.359375 C 4.476562 -11.359375 5.238281 -11.09375 5.8125 -10.5625 C 6.394531 -10.03125 6.6875 -9.328125 6.6875 -8.453125 C 6.6875 -7.941406 6.582031 -7.429688 6.375 -6.921875 C 6.175781 -6.421875 5.945312 -5.972656 5.6875 -5.578125 C 5.445312 -5.210938 5.175781 -4.78125 4.875 -4.28125 C 4.582031 -3.789062 4.367188 -3.347656 4.234375 -2.953125 C 4.566406 -2.429688 5.085938 -1.972656 5.796875 -1.578125 C 6.503906 -1.179688 7.453125 -0.984375 8.640625 -0.984375 C 9.804688 -0.984375 10.753906 -1.25 11.484375 -1.78125 C 12.222656 -2.3125 12.773438 -3.019531 13.140625 -3.90625 C 13.492188 -4.726562 13.742188 -5.742188 13.890625 -6.953125 C 14.046875 -8.160156 14.125 -9.507812 14.125 -11 L 14.125 -28.890625 C 14.125 -29.441406 14.03125 -29.90625 13.84375 -30.28125 C 13.664062 -30.65625 13.289062 -30.988281 12.71875 -31.28125 C 12.226562 -31.53125 11.613281 -31.722656 10.875 -31.859375 C 10.132812 -31.992188 9.523438 -32.078125 9.046875 -32.109375 L 9.046875 -33.796875 L 23.96875 -33.796875 Z M 23.96875 -32.109375 "/></g></g></g><g fill="#d8c3a5" fill-opacity="1"><g transform="translate(274.241688, 45.288107)"><g><path d="M 23.96875 -0.421875 C 23.21875 -0.160156 22.5625 0.0507812 22 0.21875 C 21.4375 0.382812 20.796875 0.46875 20.078125 0.46875 C 18.835938 0.46875 17.847656 0.179688 17.109375 -0.390625 C 16.367188 -0.972656 15.898438 -1.820312 15.703125 -2.9375 L 15.546875 -2.9375 C 14.515625 -1.789062 13.40625 -0.914062 12.21875 -0.3125 C 11.039062 0.289062 9.617188 0.59375 7.953125 0.59375 C 6.191406 0.59375 4.742188 0.0546875 3.609375 -1.015625 C 2.472656 -2.097656 1.90625 -3.515625 1.90625 -5.265625 C 1.90625 -6.171875 2.03125 -6.976562 2.28125 -7.6875 C 2.539062 -8.40625 2.925781 -9.050781 3.4375 -9.625 C 3.832031 -10.101562 4.351562 -10.523438 5 -10.890625 C 5.65625 -11.265625 6.269531 -11.566406 6.84375 -11.796875 C 7.550781 -12.066406 8.992188 -12.566406 11.171875 -13.296875 C 13.359375 -14.023438 14.832031 -14.59375 15.59375 -15 L 15.59375 -17.359375 C 15.59375 -17.566406 15.550781 -17.960938 15.46875 -18.546875 C 15.382812 -19.140625 15.195312 -19.695312 14.90625 -20.21875 C 14.59375 -20.8125 14.144531 -21.320312 13.5625 -21.75 C 12.988281 -22.1875 12.164062 -22.40625 11.09375 -22.40625 C 10.363281 -22.40625 9.6875 -22.28125 9.0625 -22.03125 C 8.4375 -21.789062 7.992188 -21.535156 7.734375 -21.265625 C 7.734375 -20.953125 7.804688 -20.484375 7.953125 -19.859375 C 8.109375 -19.242188 8.1875 -18.675781 8.1875 -18.15625 C 8.1875 -17.59375 7.9375 -17.082031 7.4375 -16.625 C 6.9375 -16.164062 6.242188 -15.9375 5.359375 -15.9375 C 4.566406 -15.9375 3.984375 -16.21875 3.609375 -16.78125 C 3.234375 -17.34375 3.046875 -17.972656 3.046875 -18.671875 C 3.046875 -19.398438 3.300781 -20.097656 3.8125 -20.765625 C 4.332031 -21.429688 5.003906 -22.03125 5.828125 -22.5625 C 6.546875 -23 7.410156 -23.375 8.421875 -23.6875 C 9.441406 -24 10.4375 -24.15625 11.40625 -24.15625 C 12.738281 -24.15625 13.898438 -24.0625 14.890625 -23.875 C 15.890625 -23.695312 16.796875 -23.304688 17.609375 -22.703125 C 18.410156 -22.109375 19.019531 -21.304688 19.4375 -20.296875 C 19.863281 -19.296875 20.078125 -18 20.078125 -16.40625 C 20.078125 -14.132812 20.050781 -12.117188 20 -10.359375 C 19.957031 -8.609375 19.9375 -6.695312 19.9375 -4.625 C 19.9375 -4 20.039062 -3.503906 20.25 -3.140625 C 20.46875 -2.773438 20.800781 -2.46875 21.25 -2.21875 C 21.488281 -2.070312 21.863281 -1.988281 22.375 -1.96875 C 22.894531 -1.957031 23.425781 -1.953125 23.96875 -1.953125 Z M 15.65625 -13 C 14.300781 -12.601562 13.113281 -12.210938 12.09375 -11.828125 C 11.082031 -11.453125 10.140625 -10.976562 9.265625 -10.40625 C 8.472656 -9.863281 7.84375 -9.222656 7.375 -8.484375 C 6.914062 -7.753906 6.6875 -6.878906 6.6875 -5.859375 C 6.6875 -4.535156 7.03125 -3.566406 7.71875 -2.953125 C 8.414062 -2.335938 9.296875 -2.03125 10.359375 -2.03125 C 11.484375 -2.03125 12.472656 -2.300781 13.328125 -2.84375 C 14.191406 -3.394531 14.914062 -4.039062 15.5 -4.78125 Z M 15.65625 -13 "/></g></g></g><g fill="#d8c3a5" fill-opacity="1"><g transform="translate(300.231103, 45.288107)"><g><path d="M 12.578125 0.625 C 9.179688 0.625 6.519531 -0.5 4.59375 -2.75 C 2.675781 -5.007812 1.71875 -8.039062 1.71875 -11.84375 C 1.71875 -13.488281 1.972656 -15.03125 2.484375 -16.46875 C 3.003906 -17.90625 3.753906 -19.210938 4.734375 -20.390625 C 5.671875 -21.515625 6.847656 -22.421875 8.265625 -23.109375 C 9.679688 -23.804688 11.222656 -24.15625 12.890625 -24.15625 C 15.191406 -24.15625 17.0625 -23.601562 18.5 -22.5 C 19.945312 -21.394531 20.671875 -19.890625 20.671875 -17.984375 C 20.671875 -17.191406 20.476562 -16.488281 20.09375 -15.875 C 19.71875 -15.257812 19.09375 -14.953125 18.21875 -14.953125 C 17.28125 -14.953125 16.550781 -15.191406 16.03125 -15.671875 C 15.519531 -16.148438 15.265625 -16.679688 15.265625 -17.265625 C 15.265625 -17.984375 15.359375 -18.71875 15.546875 -19.46875 C 15.742188 -20.226562 15.859375 -20.78125 15.890625 -21.125 C 15.597656 -21.613281 15.171875 -21.941406 14.609375 -22.109375 C 14.046875 -22.273438 13.441406 -22.359375 12.796875 -22.359375 C 12.023438 -22.359375 11.296875 -22.195312 10.609375 -21.875 C 9.921875 -21.550781 9.25 -20.953125 8.59375 -20.078125 C 8.007812 -19.285156 7.535156 -18.210938 7.171875 -16.859375 C 6.804688 -15.515625 6.625 -13.90625 6.625 -12.03125 C 6.625 -9.070312 7.273438 -6.660156 8.578125 -4.796875 C 9.890625 -2.929688 11.613281 -2 13.75 -2 C 15.28125 -2 16.566406 -2.367188 17.609375 -3.109375 C 18.648438 -3.859375 19.617188 -4.984375 20.515625 -6.484375 L 22.03125 -5.484375 C 20.976562 -3.609375 19.59375 -2.117188 17.875 -1.015625 C 16.164062 0.078125 14.398438 0.625 12.578125 0.625 Z M 12.578125 0.625 "/></g></g></g><g fill="#d8c3a5" fill-opacity="1"><g transform="translate(323.791682, 45.288107)"><g><path d="M 27.484375 10.578125 L 14.796875 10.578125 L 14.796875 8.984375 C 15.285156 8.953125 15.765625 8.910156 16.234375 8.859375 C 16.710938 8.816406 17.144531 8.738281 17.53125 8.625 C 18.019531 8.46875 18.359375 8.1875 18.546875 7.78125 C 18.742188 7.382812 18.84375 6.921875 18.84375 6.390625 L 18.84375 -2.28125 L 18.703125 -2.328125 C 18.441406 -2.046875 18.078125 -1.71875 17.609375 -1.34375 C 17.140625 -0.96875 16.65625 -0.660156 16.15625 -0.421875 C 15.519531 -0.0859375 14.90625 0.164062 14.3125 0.34375 C 13.726562 0.53125 12.988281 0.625 12.09375 0.625 C 10.664062 0.625 9.320312 0.328125 8.0625 -0.265625 C 6.800781 -0.867188 5.703125 -1.71875 4.765625 -2.8125 C 3.828125 -3.894531 3.082031 -5.222656 2.53125 -6.796875 C 1.988281 -8.378906 1.71875 -10.113281 1.71875 -12 C 1.71875 -13.800781 2.035156 -15.4375 2.671875 -16.90625 C 3.304688 -18.375 4.144531 -19.65625 5.1875 -20.75 C 6.1875 -21.78125 7.390625 -22.597656 8.796875 -23.203125 C 10.203125 -23.816406 11.597656 -24.125 12.984375 -24.125 C 14.015625 -24.125 14.929688 -24.023438 15.734375 -23.828125 C 16.535156 -23.628906 17.222656 -23.394531 17.796875 -23.125 C 18.285156 -22.914062 18.773438 -22.648438 19.265625 -22.328125 C 19.765625 -22.003906 20.113281 -21.785156 20.3125 -21.671875 L 22.34375 -24.765625 L 23.703125 -24.578125 C 23.640625 -23.398438 23.554688 -21.953125 23.453125 -20.234375 C 23.347656 -18.523438 23.296875 -17.03125 23.296875 -15.75 L 23.296875 5.984375 C 23.296875 6.535156 23.398438 7.015625 23.609375 7.421875 C 23.816406 7.828125 24.148438 8.132812 24.609375 8.34375 C 24.984375 8.5 25.460938 8.632812 26.046875 8.75 C 26.640625 8.875 27.117188 8.953125 27.484375 8.984375 Z M 18.84375 -4.359375 L 18.84375 -18.390625 C 18.71875 -18.785156 18.503906 -19.222656 18.203125 -19.703125 C 17.898438 -20.191406 17.539062 -20.617188 17.125 -20.984375 C 16.675781 -21.367188 16.128906 -21.6875 15.484375 -21.9375 C 14.847656 -22.1875 14.109375 -22.3125 13.265625 -22.3125 C 11.410156 -22.3125 9.847656 -21.347656 8.578125 -19.421875 C 7.316406 -17.503906 6.6875 -14.863281 6.6875 -11.5 C 6.6875 -10.164062 6.8125 -8.957031 7.0625 -7.875 C 7.3125 -6.800781 7.738281 -5.796875 8.34375 -4.859375 C 8.90625 -3.972656 9.625 -3.257812 10.5 -2.71875 C 11.375 -2.1875 12.476562 -1.921875 13.8125 -1.921875 C 14.957031 -1.921875 15.929688 -2.160156 16.734375 -2.640625 C 17.546875 -3.128906 18.25 -3.703125 18.84375 -4.359375 Z M 18.84375 -4.359375 "/></g></g></g><g fill="#d8c3a5" fill-opacity="1"><g transform="translate(352.495752, 45.288107)"><g><path d="M 26.890625 -0.421875 L 19.25 0.09375 L 18.890625 -0.234375 L 18.890625 -3.21875 L 18.75 -3.21875 C 18.363281 -2.820312 17.929688 -2.394531 17.453125 -1.9375 C 16.984375 -1.488281 16.4375 -1.082031 15.8125 -0.71875 C 15.101562 -0.289062 14.414062 0.03125 13.75 0.25 C 13.082031 0.476562 12.132812 0.59375 10.90625 0.59375 C 8.820312 0.59375 7.238281 -0.0820312 6.15625 -1.4375 C 5.070312 -2.800781 4.53125 -4.773438 4.53125 -7.359375 L 4.53125 -18.609375 C 4.53125 -19.171875 4.421875 -19.644531 4.203125 -20.03125 C 3.984375 -20.425781 3.671875 -20.769531 3.265625 -21.0625 C 2.972656 -21.25 2.613281 -21.382812 2.1875 -21.46875 C 1.757812 -21.5625 1.304688 -21.625 0.828125 -21.65625 L 0.828125 -23.203125 L 8.671875 -23.765625 L 9.03125 -23.4375 L 9.03125 -7.125 C 9.03125 -5.425781 9.410156 -4.144531 10.171875 -3.28125 C 10.929688 -2.425781 11.84375 -2 12.90625 -2 C 13.78125 -2 14.554688 -2.132812 15.234375 -2.40625 C 15.921875 -2.675781 16.492188 -2.992188 16.953125 -3.359375 C 17.390625 -3.691406 17.769531 -4.046875 18.09375 -4.421875 C 18.414062 -4.796875 18.664062 -5.140625 18.84375 -5.453125 L 18.84375 -18.765625 C 18.84375 -19.296875 18.726562 -19.757812 18.5 -20.15625 C 18.28125 -20.5625 17.972656 -20.910156 17.578125 -21.203125 C 17.296875 -21.390625 16.867188 -21.503906 16.296875 -21.546875 C 15.734375 -21.585938 15.101562 -21.625 14.40625 -21.65625 L 14.40625 -23.203125 L 22.9375 -23.765625 L 23.296875 -23.4375 L 23.296875 -4.78125 C 23.296875 -4.25 23.40625 -3.789062 23.625 -3.40625 C 23.851562 -3.019531 24.164062 -2.691406 24.5625 -2.421875 C 24.84375 -2.253906 25.179688 -2.140625 25.578125 -2.078125 C 25.972656 -2.023438 26.410156 -1.992188 26.890625 -1.984375 Z M 26.890625 -0.421875 "/></g></g></g><g fill="#d8c3a5" fill-opacity="1"><g transform="translate(381.961785, 45.288107)"><g><path d="M 22.578125 -5.53125 C 21.597656 -3.65625 20.28125 -2.160156 18.625 -1.046875 C 16.976562 0.0664062 15.082031 0.625 12.9375 0.625 C 11.039062 0.625 9.378906 0.289062 7.953125 -0.375 C 6.535156 -1.039062 5.367188 -1.945312 4.453125 -3.09375 C 3.535156 -4.238281 2.847656 -5.570312 2.390625 -7.09375 C 1.941406 -8.625 1.71875 -10.238281 1.71875 -11.9375 C 1.71875 -13.457031 1.957031 -14.953125 2.4375 -16.421875 C 2.925781 -17.890625 3.640625 -19.210938 4.578125 -20.390625 C 5.484375 -21.515625 6.601562 -22.421875 7.9375 -23.109375 C 9.28125 -23.804688 10.785156 -24.15625 12.453125 -24.15625 C 14.171875 -24.15625 15.640625 -23.882812 16.859375 -23.34375 C 18.085938 -22.800781 19.082031 -22.0625 19.84375 -21.125 C 20.570312 -20.238281 21.113281 -19.191406 21.46875 -17.984375 C 21.832031 -16.773438 22.015625 -15.460938 22.015625 -14.046875 L 22.015625 -12.484375 L 6.453125 -12.484375 C 6.453125 -10.941406 6.597656 -9.539062 6.890625 -8.28125 C 7.191406 -7.03125 7.65625 -5.929688 8.28125 -4.984375 C 8.90625 -4.054688 9.71875 -3.328125 10.71875 -2.796875 C 11.71875 -2.265625 12.910156 -2 14.296875 -2 C 15.703125 -2 16.914062 -2.328125 17.9375 -2.984375 C 18.96875 -3.648438 19.957031 -4.835938 20.90625 -6.546875 Z M 17.3125 -14.484375 C 17.3125 -15.367188 17.234375 -16.316406 17.078125 -17.328125 C 16.929688 -18.347656 16.691406 -19.203125 16.359375 -19.890625 C 15.992188 -20.617188 15.492188 -21.210938 14.859375 -21.671875 C 14.222656 -22.128906 13.40625 -22.359375 12.40625 -22.359375 C 10.738281 -22.359375 9.351562 -21.664062 8.25 -20.28125 C 7.144531 -18.894531 6.546875 -16.960938 6.453125 -14.484375 Z M 17.3125 -14.484375 "/></g></g></g><g fill="#d8c3a5" fill-opacity="1"><g transform="translate(406.951077, 45.288107)"><g><path d="M 17.21875 -11.5 C 17.875 -10.925781 18.375 -10.265625 18.71875 -9.515625 C 19.070312 -8.773438 19.25 -7.863281 19.25 -6.78125 C 19.25 -4.613281 18.429688 -2.835938 16.796875 -1.453125 C 15.171875 -0.0664062 13.066406 0.625 10.484375 0.625 C 9.117188 0.625 7.859375 0.378906 6.703125 -0.109375 C 5.554688 -0.609375 4.734375 -1.066406 4.234375 -1.484375 L 3.765625 0.078125 L 1.984375 0.078125 L 1.734375 -8.09375 L 3.375 -8.09375 C 3.507812 -7.476562 3.78125 -6.753906 4.1875 -5.921875 C 4.601562 -5.097656 5.101562 -4.351562 5.6875 -3.6875 C 6.3125 -2.988281 7.054688 -2.398438 7.921875 -1.921875 C 8.785156 -1.453125 9.757812 -1.21875 10.84375 -1.21875 C 12.363281 -1.21875 13.535156 -1.5625 14.359375 -2.25 C 15.179688 -2.9375 15.59375 -3.925781 15.59375 -5.21875 C 15.59375 -5.882812 15.460938 -6.457031 15.203125 -6.9375 C 14.941406 -7.425781 14.554688 -7.851562 14.046875 -8.21875 C 13.523438 -8.582031 12.882812 -8.910156 12.125 -9.203125 C 11.363281 -9.492188 10.515625 -9.785156 9.578125 -10.078125 C 8.828125 -10.296875 7.992188 -10.597656 7.078125 -10.984375 C 6.171875 -11.378906 5.390625 -11.835938 4.734375 -12.359375 C 4.035156 -12.921875 3.460938 -13.601562 3.015625 -14.40625 C 2.578125 -15.21875 2.359375 -16.171875 2.359375 -17.265625 C 2.359375 -19.191406 3.070312 -20.820312 4.5 -22.15625 C 5.925781 -23.488281 7.835938 -24.15625 10.234375 -24.15625 C 11.160156 -24.15625 12.101562 -24.035156 13.0625 -23.796875 C 14.019531 -23.554688 14.800781 -23.269531 15.40625 -22.9375 L 15.953125 -24.171875 L 17.671875 -24.171875 L 18.03125 -16.625 L 16.390625 -16.625 C 16.054688 -18.3125 15.335938 -19.679688 14.234375 -20.734375 C 13.128906 -21.785156 11.78125 -22.3125 10.1875 -22.3125 C 8.882812 -22.3125 7.859375 -21.984375 7.109375 -21.328125 C 6.367188 -20.679688 6 -19.898438 6 -18.984375 C 6 -18.265625 6.117188 -17.664062 6.359375 -17.1875 C 6.609375 -16.71875 6.984375 -16.316406 7.484375 -15.984375 C 7.953125 -15.660156 8.546875 -15.359375 9.265625 -15.078125 C 9.992188 -14.804688 10.890625 -14.5 11.953125 -14.15625 C 13.003906 -13.8125 13.992188 -13.414062 14.921875 -12.96875 C 15.847656 -12.53125 16.613281 -12.039062 17.21875 -11.5 Z M 17.21875 -11.5 "/></g></g></g><g fill="#d8c3a5" fill-opacity="1"><g transform="translate(0.708791, 74.676241)"><g><path d="M 0.390625 -14.71875 L 0.390625 -14.765625 C 0.390625 -14.847656 0.421875 -14.957031 0.484375 -15.09375 C 1.335938 -15.238281 2.242188 -15.46875 3.203125 -15.78125 C 3.253906 -15.78125 3.34375 -15.78125 3.46875 -15.78125 C 3.5 -15.65625 3.515625 -15.578125 3.515625 -15.546875 L 3.515625 -9.703125 L 3.5 -8.703125 C 3.5 -8.660156 3.503906 -8.523438 3.515625 -8.296875 L 4.484375 -8.65625 C 4.585938 -8.6875 4.921875 -8.789062 5.484375 -8.96875 C 6.210938 -9.082031 6.632812 -9.140625 6.75 -9.140625 C 7.53125 -9.140625 8.234375 -9.015625 8.859375 -8.765625 C 9.242188 -8.609375 9.625 -8.347656 10 -7.984375 C 10.375 -7.617188 10.648438 -7.234375 10.828125 -6.828125 C 11.140625 -6.085938 11.296875 -5.453125 11.296875 -4.921875 C 11.296875 -4.066406 11.238281 -3.472656 11.125 -3.140625 C 10.863281 -2.367188 10.539062 -1.753906 10.15625 -1.296875 C 9.769531 -0.847656 9.234375 -0.460938 8.546875 -0.140625 C 7.867188 0.179688 7.140625 0.34375 6.359375 0.34375 C 5.648438 0.34375 4.976562 0.210938 4.34375 -0.046875 C 3.71875 -0.316406 3.363281 -0.453125 3.28125 -0.453125 C 3.039062 -0.453125 2.734375 -0.132812 2.359375 0.5 L 2.03125 0.484375 C 2 -0.0351562 1.984375 -0.675781 1.984375 -1.4375 L 2 -3.1875 L 1.984375 -4.078125 L 2.015625 -6.625 L 1.984375 -7.109375 L 2.03125 -8.328125 L 2.03125 -9.34375 L 2.046875 -9.765625 C 2.046875 -9.859375 2.039062 -10.203125 2.03125 -10.796875 L 2.03125 -11.5 C 2.0625 -12.851562 2.003906 -13.632812 1.859375 -13.84375 C 1.628906 -14.175781 1.140625 -14.46875 0.390625 -14.71875 Z M 5.953125 -0.296875 C 7.140625 -0.296875 8.039062 -0.628906 8.65625 -1.296875 C 9.28125 -1.972656 9.59375 -2.96875 9.59375 -4.28125 C 9.59375 -5.488281 9.238281 -6.46875 8.53125 -7.21875 C 7.832031 -7.96875 6.972656 -8.34375 5.953125 -8.34375 C 5.203125 -8.34375 4.570312 -8.222656 4.0625 -7.984375 C 3.757812 -7.835938 3.585938 -7.703125 3.546875 -7.578125 C 3.515625 -7.453125 3.5 -6.613281 3.5 -5.0625 C 3.5 -3.226562 3.535156 -2.15625 3.609375 -1.84375 C 3.742188 -1.363281 3.988281 -1.019531 4.34375 -0.8125 C 4.894531 -0.46875 5.429688 -0.296875 5.953125 -0.296875 Z M 5.953125 -0.296875 "/></g></g></g><g fill="#d8c3a5" fill-opacity="1"><g transform="translate(17.393948, 74.676241)"><g><path d="M 0.859375 -4.703125 C 0.859375 -5.234375 0.96875 -5.800781 1.1875 -6.40625 C 1.40625 -7.007812 1.738281 -7.550781 2.1875 -8.03125 C 2.644531 -8.507812 3.128906 -8.867188 3.640625 -9.109375 C 4.347656 -9.429688 5.210938 -9.59375 6.234375 -9.59375 C 7.691406 -9.59375 8.910156 -9.09375 9.890625 -8.09375 C 10.867188 -7.09375 11.359375 -5.894531 11.359375 -4.5 C 11.359375 -3.25 10.84375 -2.132812 9.8125 -1.15625 C 8.789062 -0.175781 7.5 0.3125 5.9375 0.3125 C 4.96875 0.3125 4.050781 0.0625 3.1875 -0.4375 C 2.550781 -0.820312 2.003906 -1.390625 1.546875 -2.140625 C 1.085938 -2.890625 0.859375 -3.742188 0.859375 -4.703125 Z M 6.03125 -0.140625 C 6.625 -0.140625 7.191406 -0.296875 7.734375 -0.609375 C 8.285156 -0.929688 8.722656 -1.445312 9.046875 -2.15625 C 9.378906 -2.863281 9.546875 -3.679688 9.546875 -4.609375 C 9.546875 -5.222656 9.421875 -5.929688 9.171875 -6.734375 C 8.921875 -7.535156 8.53125 -8.132812 8 -8.53125 C 7.46875 -8.9375 6.847656 -9.140625 6.140625 -9.140625 C 5.628906 -9.140625 5.101562 -9.019531 4.5625 -8.78125 C 4.03125 -8.539062 3.578125 -8.078125 3.203125 -7.390625 C 2.835938 -6.703125 2.65625 -5.722656 2.65625 -4.453125 C 2.65625 -3.035156 2.976562 -1.960938 3.625 -1.234375 C 4.269531 -0.503906 5.070312 -0.140625 6.03125 -0.140625 Z M 6.03125 -0.140625 "/></g></g></g><g fill="#d8c3a5" fill-opacity="1"><g transform="translate(34.079106, 74.676241)"><g><path d="M 1.65625 -14.390625 C 1.65625 -14.640625 1.753906 -14.859375 1.953125 -15.046875 C 2.160156 -15.234375 2.40625 -15.328125 2.6875 -15.328125 C 2.96875 -15.328125 3.21875 -15.222656 3.4375 -15.015625 C 3.65625 -14.804688 3.765625 -14.582031 3.765625 -14.34375 C 3.765625 -14.09375 3.65625 -13.859375 3.4375 -13.640625 C 3.21875 -13.429688 2.96875 -13.328125 2.6875 -13.328125 C 2.394531 -13.328125 2.148438 -13.425781 1.953125 -13.625 C 1.753906 -13.820312 1.65625 -14.078125 1.65625 -14.390625 Z M 0.671875 -8.328125 L 0.6875 -8.65625 C 1.195312 -8.8125 1.472656 -8.898438 1.515625 -8.921875 C 1.796875 -9.046875 2.085938 -9.234375 2.390625 -9.484375 C 2.703125 -9.742188 2.960938 -10.035156 3.171875 -10.359375 C 3.265625 -10.367188 3.335938 -10.375 3.390625 -10.375 L 3.53125 -10.375 C 3.5625 -10 3.578125 -9.722656 3.578125 -9.546875 C 3.578125 -9.503906 3.570312 -9.328125 3.5625 -9.015625 L 3.5625 -5.03125 L 3.53125 -1.46875 C 3.519531 -1.175781 3.566406 -0.972656 3.671875 -0.859375 C 3.773438 -0.742188 4.078125 -0.617188 4.578125 -0.484375 C 4.890625 -0.390625 5.125 -0.3125 5.28125 -0.25 C 5.300781 -0.195312 5.3125 -0.148438 5.3125 -0.109375 C 5.3125 -0.0664062 5.289062 -0.0078125 5.25 0.0625 C 4.945312 0.0507812 4.554688 0.03125 4.078125 0 C 3.429688 -0.0507812 3.003906 -0.078125 2.796875 -0.078125 C 2.691406 -0.078125 2.066406 -0.0546875 0.921875 -0.015625 C 0.691406 -0.015625 0.46875 0 0.25 0.03125 C 0.207031 0.03125 0.144531 0.0195312 0.0625 0 C 0.0195312 -0.0507812 0 -0.0976562 0 -0.140625 C 0 -0.242188 0.0703125 -0.328125 0.21875 -0.390625 C 0.25 -0.410156 0.648438 -0.503906 1.421875 -0.671875 C 1.671875 -0.710938 1.832031 -0.789062 1.90625 -0.90625 C 2.039062 -1.0625 2.109375 -1.320312 2.109375 -1.6875 C 2.117188 -2.289062 2.125 -3.9375 2.125 -6.625 C 2.125 -7.164062 2.101562 -7.5 2.0625 -7.625 C 2.019531 -7.71875 1.914062 -7.828125 1.75 -7.953125 C 1.582031 -8.078125 1.222656 -8.203125 0.671875 -8.328125 Z M 0.671875 -8.328125 "/></g></g></g><g fill="#d8c3a5" fill-opacity="1"><g transform="translate(44.024774, 74.676241)"><g><path d="M 1.703125 -2.96875 C 1.984375 -2.226562 2.203125 -1.75 2.359375 -1.53125 C 2.648438 -1.082031 3 -0.734375 3.40625 -0.484375 C 3.820312 -0.242188 4.273438 -0.125 4.765625 -0.125 C 5.210938 -0.125 5.648438 -0.316406 6.078125 -0.703125 C 6.390625 -0.992188 6.546875 -1.328125 6.546875 -1.703125 C 6.546875 -2.210938 6.363281 -2.679688 6 -3.109375 C 5.632812 -3.535156 4.9375 -3.941406 3.90625 -4.328125 C 2.882812 -4.710938 2.195312 -5.125 1.84375 -5.5625 C 1.5 -6 1.328125 -6.5 1.328125 -7.0625 C 1.328125 -7.59375 1.46875 -8.054688 1.75 -8.453125 C 2.039062 -8.859375 2.4375 -9.164062 2.9375 -9.375 C 3.445312 -9.582031 3.921875 -9.6875 4.359375 -9.6875 C 4.910156 -9.6875 5.40625 -9.644531 5.84375 -9.5625 C 6.28125 -9.476562 6.660156 -9.34375 6.984375 -9.15625 C 7.046875 -8.757812 7.097656 -8.175781 7.140625 -7.40625 L 7.15625 -7.03125 C 7.0625 -7.019531 6.976562 -7.015625 6.90625 -7.015625 L 6.734375 -7.015625 C 6.503906 -7.671875 6.148438 -8.1875 5.671875 -8.5625 C 5.191406 -8.9375 4.71875 -9.125 4.25 -9.125 C 3.78125 -9.125 3.398438 -8.984375 3.109375 -8.703125 C 2.828125 -8.421875 2.6875 -8.046875 2.6875 -7.578125 C 2.6875 -7.234375 2.800781 -6.921875 3.03125 -6.640625 C 3.257812 -6.367188 3.804688 -6.054688 4.671875 -5.703125 C 5.535156 -5.359375 6.164062 -5.035156 6.5625 -4.734375 C 6.957031 -4.429688 7.25 -4.066406 7.4375 -3.640625 C 7.625 -3.210938 7.71875 -2.800781 7.71875 -2.40625 C 7.71875 -1.875 7.535156 -1.375 7.171875 -0.90625 C 6.816406 -0.4375 6.375 -0.109375 5.84375 0.078125 C 5.3125 0.273438 4.832031 0.375 4.40625 0.375 C 3.414062 0.375 2.503906 0.191406 1.671875 -0.171875 C 1.597656 -0.234375 1.554688 -0.351562 1.546875 -0.53125 C 1.546875 -0.59375 1.535156 -0.703125 1.515625 -0.859375 C 1.390625 -1.921875 1.328125 -2.546875 1.328125 -2.734375 C 1.328125 -2.828125 1.347656 -2.890625 1.390625 -2.921875 C 1.429688 -2.953125 1.535156 -2.96875 1.703125 -2.96875 Z M 1.703125 -2.96875 "/></g></g></g><g fill="#d8c3a5" fill-opacity="1"><g transform="translate(57.223182, 74.676241)"><g><path d="M 1.703125 -2.96875 C 1.984375 -2.226562 2.203125 -1.75 2.359375 -1.53125 C 2.648438 -1.082031 3 -0.734375 3.40625 -0.484375 C 3.820312 -0.242188 4.273438 -0.125 4.765625 -0.125 C 5.210938 -0.125 5.648438 -0.316406 6.078125 -0.703125 C 6.390625 -0.992188 6.546875 -1.328125 6.546875 -1.703125 C 6.546875 -2.210938 6.363281 -2.679688 6 -3.109375 C 5.632812 -3.535156 4.9375 -3.941406 3.90625 -4.328125 C 2.882812 -4.710938 2.195312 -5.125 1.84375 -5.5625 C 1.5 -6 1.328125 -6.5 1.328125 -7.0625 C 1.328125 -7.59375 1.46875 -8.054688 1.75 -8.453125 C 2.039062 -8.859375 2.4375 -9.164062 2.9375 -9.375 C 3.445312 -9.582031 3.921875 -9.6875 4.359375 -9.6875 C 4.910156 -9.6875 5.40625 -9.644531 5.84375 -9.5625 C 6.28125 -9.476562 6.660156 -9.34375 6.984375 -9.15625 C 7.046875 -8.757812 7.097656 -8.175781 7.140625 -7.40625 L 7.15625 -7.03125 C 7.0625 -7.019531 6.976562 -7.015625 6.90625 -7.015625 L 6.734375 -7.015625 C 6.503906 -7.671875 6.148438 -8.1875 5.671875 -8.5625 C 5.191406 -8.9375 4.71875 -9.125 4.25 -9.125 C 3.78125 -9.125 3.398438 -8.984375 3.109375 -8.703125 C 2.828125 -8.421875 2.6875 -8.046875 2.6875 -7.578125 C 2.6875 -7.234375 2.800781 -6.921875 3.03125 -6.640625 C 3.257812 -6.367188 3.804688 -6.054688 4.671875 -5.703125 C 5.535156 -5.359375 6.164062 -5.035156 6.5625 -4.734375 C 6.957031 -4.429688 7.25 -4.066406 7.4375 -3.640625 C 7.625 -3.210938 7.71875 -2.800781 7.71875 -2.40625 C 7.71875 -1.875 7.535156 -1.375 7.171875 -0.90625 C 6.816406 -0.4375 6.375 -0.109375 5.84375 0.078125 C 5.3125 0.273438 4.832031 0.375 4.40625 0.375 C 3.414062 0.375 2.503906 0.191406 1.671875 -0.171875 C 1.597656 -0.234375 1.554688 -0.351562 1.546875 -0.53125 C 1.546875 -0.59375 1.535156 -0.703125 1.515625 -0.859375 C 1.390625 -1.921875 1.328125 -2.546875 1.328125 -2.734375 C 1.328125 -2.828125 1.347656 -2.890625 1.390625 -2.921875 C 1.429688 -2.953125 1.535156 -2.96875 1.703125 -2.96875 Z M 1.703125 -2.96875 "/></g></g></g><g fill="#d8c3a5" fill-opacity="1"><g transform="translate(70.421589, 74.676241)"><g><path d="M 0.859375 -4.703125 C 0.859375 -5.234375 0.96875 -5.800781 1.1875 -6.40625 C 1.40625 -7.007812 1.738281 -7.550781 2.1875 -8.03125 C 2.644531 -8.507812 3.128906 -8.867188 3.640625 -9.109375 C 4.347656 -9.429688 5.210938 -9.59375 6.234375 -9.59375 C 7.691406 -9.59375 8.910156 -9.09375 9.890625 -8.09375 C 10.867188 -7.09375 11.359375 -5.894531 11.359375 -4.5 C 11.359375 -3.25 10.84375 -2.132812 9.8125 -1.15625 C 8.789062 -0.175781 7.5 0.3125 5.9375 0.3125 C 4.96875 0.3125 4.050781 0.0625 3.1875 -0.4375 C 2.550781 -0.820312 2.003906 -1.390625 1.546875 -2.140625 C 1.085938 -2.890625 0.859375 -3.742188 0.859375 -4.703125 Z M 6.03125 -0.140625 C 6.625 -0.140625 7.191406 -0.296875 7.734375 -0.609375 C 8.285156 -0.929688 8.722656 -1.445312 9.046875 -2.15625 C 9.378906 -2.863281 9.546875 -3.679688 9.546875 -4.609375 C 9.546875 -5.222656 9.421875 -5.929688 9.171875 -6.734375 C 8.921875 -7.535156 8.53125 -8.132812 8 -8.53125 C 7.46875 -8.9375 6.847656 -9.140625 6.140625 -9.140625 C 5.628906 -9.140625 5.101562 -9.019531 4.5625 -8.78125 C 4.03125 -8.539062 3.578125 -8.078125 3.203125 -7.390625 C 2.835938 -6.703125 2.65625 -5.722656 2.65625 -4.453125 C 2.65625 -3.035156 2.976562 -1.960938 3.625 -1.234375 C 4.269531 -0.503906 5.070312 -0.140625 6.03125 -0.140625 Z M 6.03125 -0.140625 "/></g></g></g><g fill="#d8c3a5" fill-opacity="1"><g transform="translate(87.106747, 74.676241)"><g><path d="M 0.4375 -0.375 C 0.632812 -0.425781 0.863281 -0.472656 1.125 -0.515625 C 1.613281 -0.585938 1.90625 -0.671875 2 -0.765625 C 2.101562 -0.859375 2.15625 -1.070312 2.15625 -1.40625 L 2.171875 -1.828125 C 2.179688 -1.984375 2.1875 -2.179688 2.1875 -2.421875 L 2.171875 -6.015625 C 2.171875 -6.492188 2.109375 -6.804688 1.984375 -6.953125 C 1.765625 -7.171875 1.375 -7.320312 0.8125 -7.40625 L 0.8125 -7.828125 C 1.375 -7.984375 1.8125 -8.1875 2.125 -8.4375 C 2.5625 -8.789062 2.929688 -9.265625 3.234375 -9.859375 L 3.640625 -9.859375 C 3.660156 -9.484375 3.671875 -9.21875 3.671875 -9.0625 L 3.671875 -8.296875 L 3.6875 -8.09375 C 3.78125 -8.15625 3.890625 -8.234375 4.015625 -8.328125 C 4.484375 -8.671875 4.960938 -8.953125 5.453125 -9.171875 C 5.941406 -9.398438 6.378906 -9.554688 6.765625 -9.640625 C 7.003906 -9.703125 7.273438 -9.734375 7.578125 -9.734375 C 8.222656 -9.734375 8.773438 -9.5625 9.234375 -9.21875 C 9.691406 -8.875 9.988281 -8.46875 10.125 -8 C 10.257812 -7.539062 10.328125 -6.625 10.328125 -5.25 L 10.328125 -3.46875 C 10.328125 -3.425781 10.320312 -3.269531 10.3125 -3 C 10.300781 -2.738281 10.296875 -2.4375 10.296875 -2.09375 C 10.296875 -1.550781 10.320312 -1.203125 10.375 -1.046875 C 10.40625 -0.953125 10.503906 -0.851562 10.671875 -0.75 C 11.421875 -0.644531 11.859375 -0.523438 11.984375 -0.390625 L 11.984375 -0.296875 C 11.984375 -0.210938 11.960938 -0.113281 11.921875 0 L 11.6875 0 L 10.140625 -0.015625 L 8.625 0.015625 C 8.0625 0.0234375 7.539062 0.0195312 7.0625 0 L 7 -0.25 C 7 -0.289062 7.023438 -0.351562 7.078125 -0.4375 C 7.285156 -0.53125 7.582031 -0.59375 7.96875 -0.625 C 8.195312 -0.632812 8.351562 -0.65625 8.4375 -0.6875 C 8.519531 -0.71875 8.625 -0.78125 8.75 -0.875 C 8.84375 -1.0625 8.890625 -1.21875 8.890625 -1.34375 C 8.890625 -1.394531 8.882812 -1.503906 8.875 -1.671875 C 8.851562 -2.035156 8.835938 -2.929688 8.828125 -4.359375 L 8.828125 -4.96875 L 8.84375 -5.90625 C 8.84375 -6.90625 8.640625 -7.597656 8.234375 -7.984375 C 7.828125 -8.367188 7.285156 -8.5625 6.609375 -8.5625 C 6.085938 -8.5625 5.578125 -8.441406 5.078125 -8.203125 C 4.578125 -7.972656 4.09375 -7.628906 3.625 -7.171875 C 3.613281 -6.796875 3.609375 -6.476562 3.609375 -6.21875 L 3.640625 -3.625 C 3.640625 -2.28125 3.660156 -1.453125 3.703125 -1.140625 C 3.710938 -1.015625 3.738281 -0.929688 3.78125 -0.890625 C 3.84375 -0.828125 3.96875 -0.773438 4.15625 -0.734375 C 4.34375 -0.691406 4.554688 -0.632812 4.796875 -0.5625 C 5.046875 -0.5 5.210938 -0.457031 5.296875 -0.4375 C 5.453125 -0.40625 5.554688 -0.328125 5.609375 -0.203125 L 5.59375 0.015625 L 4.359375 0.015625 L 1.84375 -0.015625 C 1.25 0.00390625 0.875 0.015625 0.71875 0.015625 L 0.4375 0.015625 L 0.40625 -0.140625 C 0.40625 -0.191406 0.414062 -0.269531 0.4375 -0.375 Z M 0.4375 -0.375 "/></g></g></g><g fill="#d8c3a5" fill-opacity="1"><g transform="translate(103.791905, 74.676241)"><g><path d="M 1.703125 -2.96875 C 1.984375 -2.226562 2.203125 -1.75 2.359375 -1.53125 C 2.648438 -1.082031 3 -0.734375 3.40625 -0.484375 C 3.820312 -0.242188 4.273438 -0.125 4.765625 -0.125 C 5.210938 -0.125 5.648438 -0.316406 6.078125 -0.703125 C 6.390625 -0.992188 6.546875 -1.328125 6.546875 -1.703125 C 6.546875 -2.210938 6.363281 -2.679688 6 -3.109375 C 5.632812 -3.535156 4.9375 -3.941406 3.90625 -4.328125 C 2.882812 -4.710938 2.195312 -5.125 1.84375 -5.5625 C 1.5 -6 1.328125 -6.5 1.328125 -7.0625 C 1.328125 -7.59375 1.46875 -8.054688 1.75 -8.453125 C 2.039062 -8.859375 2.4375 -9.164062 2.9375 -9.375 C 3.445312 -9.582031 3.921875 -9.6875 4.359375 -9.6875 C 4.910156 -9.6875 5.40625 -9.644531 5.84375 -9.5625 C 6.28125 -9.476562 6.660156 -9.34375 6.984375 -9.15625 C 7.046875 -8.757812 7.097656 -8.175781 7.140625 -7.40625 L 7.15625 -7.03125 C 7.0625 -7.019531 6.976562 -7.015625 6.90625 -7.015625 L 6.734375 -7.015625 C 6.503906 -7.671875 6.148438 -8.1875 5.671875 -8.5625 C 5.191406 -8.9375 4.71875 -9.125 4.25 -9.125 C 3.78125 -9.125 3.398438 -8.984375 3.109375 -8.703125 C 2.828125 -8.421875 2.6875 -8.046875 2.6875 -7.578125 C 2.6875 -7.234375 2.800781 -6.921875 3.03125 -6.640625 C 3.257812 -6.367188 3.804688 -6.054688 4.671875 -5.703125 C 5.535156 -5.359375 6.164062 -5.035156 6.5625 -4.734375 C 6.957031 -4.429688 7.25 -4.066406 7.4375 -3.640625 C 7.625 -3.210938 7.71875 -2.800781 7.71875 -2.40625 C 7.71875 -1.875 7.535156 -1.375 7.171875 -0.90625 C 6.816406 -0.4375 6.375 -0.109375 5.84375 0.078125 C 5.3125 0.273438 4.832031 0.375 4.40625 0.375 C 3.414062 0.375 2.503906 0.191406 1.671875 -0.171875 C 1.597656 -0.234375 1.554688 -0.351562 1.546875 -0.53125 C 1.546875 -0.59375 1.535156 -0.703125 1.515625 -0.859375 C 1.390625 -1.921875 1.328125 -2.546875 1.328125 -2.734375 C 1.328125 -2.828125 1.347656 -2.890625 1.390625 -2.921875 C 1.429688 -2.953125 1.535156 -2.96875 1.703125 -2.96875 Z M 1.703125 -2.96875 "/></g></g></g><g fill="#d8c3a5" fill-opacity="1"><g transform="translate(116.990313, 74.676241)"><g/></g></g><g fill="#d8c3a5" fill-opacity="1"><g transform="translate(127.439093, 74.676241)"><g><path d="M 4.3125 -9.109375 C 6.25 -9.066406 7.28125 -9.046875 7.40625 -9.046875 C 7.425781 -8.878906 7.4375 -8.75 7.4375 -8.65625 C 7.4375 -8.5625 7.421875 -8.410156 7.390625 -8.203125 C 7.203125 -8.171875 7.003906 -8.15625 6.796875 -8.15625 L 6.359375 -8.15625 C 5.390625 -8.15625 4.71875 -8.117188 4.34375 -8.046875 C 4.320312 -7.867188 4.3125 -7.734375 4.3125 -7.640625 C 4.3125 -7.597656 4.316406 -7.539062 4.328125 -7.46875 C 4.367188 -6.238281 4.390625 -5.5 4.390625 -5.25 L 4.359375 -2.234375 C 4.359375 -1.785156 4.4375 -1.414062 4.59375 -1.125 C 4.675781 -0.945312 4.832031 -0.8125 5.0625 -0.71875 C 5.21875 -0.644531 5.578125 -0.570312 6.140625 -0.5 C 6.566406 -0.4375 6.859375 -0.394531 7.015625 -0.375 C 7.015625 -0.207031 7 -0.0820312 6.96875 0 L 6.8125 0.015625 C 6.4375 -0.00390625 5.945312 -0.0234375 5.34375 -0.046875 L 4.484375 -0.078125 L 1.53125 0.015625 L 1.140625 0.015625 L 1.140625 -0.34375 C 1.253906 -0.375 1.335938 -0.394531 1.390625 -0.40625 C 2.066406 -0.53125 2.5 -0.671875 2.6875 -0.828125 C 2.769531 -0.890625 2.828125 -1.003906 2.859375 -1.171875 C 2.867188 -1.265625 2.875 -1.703125 2.875 -2.484375 C 2.875 -4.703125 2.859375 -6.476562 2.828125 -7.8125 C 2.617188 -7.875 2.304688 -7.910156 1.890625 -7.921875 C 1.734375 -7.921875 1.484375 -7.9375 1.140625 -7.96875 L 1.125 -8.09375 C 1.125 -8.1875 1.160156 -8.265625 1.234375 -8.328125 C 1.265625 -8.359375 1.59375 -8.523438 2.21875 -8.828125 C 2.46875 -8.929688 2.640625 -9.066406 2.734375 -9.234375 C 2.796875 -9.316406 2.828125 -9.492188 2.828125 -9.765625 C 2.835938 -9.890625 2.863281 -10.109375 2.90625 -10.421875 C 3 -11.222656 3.070312 -11.71875 3.125 -11.90625 C 3.257812 -12.425781 3.492188 -12.945312 3.828125 -13.46875 C 4.160156 -13.988281 4.5625 -14.441406 5.03125 -14.828125 C 5.375 -15.109375 5.757812 -15.316406 6.1875 -15.453125 C 6.625 -15.597656 7.117188 -15.671875 7.671875 -15.671875 C 8.421875 -15.671875 8.960938 -15.550781 9.296875 -15.3125 C 9.535156 -15.144531 9.65625 -14.929688 9.65625 -14.671875 C 9.65625 -14.453125 9.570312 -14.265625 9.40625 -14.109375 C 9.238281 -13.953125 9.035156 -13.875 8.796875 -13.875 C 8.503906 -13.875 8.1875 -13.953125 7.84375 -14.109375 C 7.195312 -14.359375 6.828125 -14.5 6.734375 -14.53125 C 6.585938 -14.5625 6.4375 -14.578125 6.28125 -14.578125 C 5.851562 -14.578125 5.460938 -14.441406 5.109375 -14.171875 C 4.753906 -13.898438 4.53125 -13.5625 4.4375 -13.15625 C 4.34375 -12.757812 4.296875 -11.867188 4.296875 -10.484375 C 4.296875 -9.984375 4.300781 -9.523438 4.3125 -9.109375 Z M 4.3125 -9.109375 "/></g></g></g><g fill="#d8c3a5" fill-opacity="1"><g transform="translate(139.631258, 74.676241)"><g><path d="M 9.265625 -6.171875 L 4.578125 -6.140625 L 3.6875 -6.140625 C 3.320312 -6.140625 2.957031 -6.125 2.59375 -6.09375 C 2.519531 -5.863281 2.484375 -5.707031 2.484375 -5.625 L 2.5 -5.5 L 2.5 -5.390625 L 2.484375 -4.8125 C 2.484375 -4.332031 2.628906 -3.75 2.921875 -3.0625 C 3.222656 -2.375 3.65625 -1.847656 4.21875 -1.484375 C 4.78125 -1.117188 5.476562 -0.925781 6.3125 -0.90625 C 6.75 -0.925781 7.097656 -0.976562 7.359375 -1.0625 C 7.628906 -1.144531 8.007812 -1.34375 8.5 -1.65625 L 9.34375 -2.359375 L 9.40625 -1.890625 C 9.40625 -1.828125 9.398438 -1.765625 9.390625 -1.703125 C 9.046875 -1.265625 8.601562 -0.875 8.0625 -0.53125 C 7.519531 -0.195312 6.972656 0.046875 6.421875 0.203125 C 6.160156 0.265625 5.722656 0.296875 5.109375 0.296875 C 4.554688 0.296875 4.007812 0.1875 3.46875 -0.03125 C 2.675781 -0.375 2.050781 -0.925781 1.59375 -1.6875 C 1.132812 -2.445312 0.90625 -3.367188 0.90625 -4.453125 C 0.90625 -4.796875 0.96875 -5.238281 1.09375 -5.78125 C 1.226562 -6.320312 1.460938 -6.894531 1.796875 -7.5 C 2.023438 -7.914062 2.304688 -8.253906 2.640625 -8.515625 C 3.097656 -8.890625 3.503906 -9.148438 3.859375 -9.296875 C 4.367188 -9.515625 4.957031 -9.625 5.625 -9.625 C 6.351562 -9.625 6.945312 -9.488281 7.40625 -9.21875 C 8.03125 -8.875 8.492188 -8.421875 8.796875 -7.859375 C 9.109375 -7.304688 9.265625 -6.800781 9.265625 -6.34375 Z M 2.734375 -6.59375 L 3.28125 -6.59375 C 3.6875 -6.59375 4.875 -6.65625 6.84375 -6.78125 C 7.15625 -6.800781 7.347656 -6.832031 7.421875 -6.875 C 7.554688 -7.03125 7.625 -7.164062 7.625 -7.28125 C 7.625 -7.519531 7.546875 -7.789062 7.390625 -8.09375 C 7.234375 -8.40625 6.992188 -8.644531 6.671875 -8.8125 C 6.347656 -8.976562 5.972656 -9.0625 5.546875 -9.0625 C 4.640625 -9.0625 3.914062 -8.722656 3.375 -8.046875 C 2.945312 -7.535156 2.734375 -7.050781 2.734375 -6.59375 Z M 2.734375 -6.59375 "/></g></g></g><g fill="#d8c3a5" fill-opacity="1"><g transform="translate(154.069919, 74.676241)"><g><path d="M 0.484375 0.03125 L 0.4375 -0.109375 C 0.4375 -0.171875 0.46875 -0.253906 0.53125 -0.359375 L 1.234375 -0.5 L 2.203125 -0.671875 C 2.273438 -0.710938 2.328125 -0.769531 2.359375 -0.84375 C 2.410156 -0.945312 2.4375 -1.25 2.4375 -1.75 C 2.4375 -4.394531 2.421875 -5.921875 2.390625 -6.328125 C 2.359375 -6.742188 2.285156 -7.003906 2.171875 -7.109375 C 2.066406 -7.222656 1.785156 -7.3125 1.328125 -7.375 C 1.066406 -7.414062 0.859375 -7.46875 0.703125 -7.53125 L 0.75 -7.875 C 1.570312 -8.207031 2.125 -8.5 2.40625 -8.75 C 2.789062 -9.09375 3.117188 -9.550781 3.390625 -10.125 L 3.796875 -10.109375 C 3.835938 -9.722656 3.859375 -8.859375 3.859375 -7.515625 L 3.84375 -7.3125 C 3.84375 -7.269531 3.851562 -7.195312 3.875 -7.09375 C 4.164062 -7.632812 4.535156 -8.128906 4.984375 -8.578125 L 5.25 -8.84375 C 5.363281 -8.96875 5.472656 -9.066406 5.578125 -9.140625 C 6.117188 -9.460938 6.519531 -9.625 6.78125 -9.625 C 7.125 -9.625 7.40625 -9.507812 7.625 -9.28125 C 7.84375 -9.050781 7.953125 -8.769531 7.953125 -8.4375 C 7.953125 -8.175781 7.875 -7.96875 7.71875 -7.8125 C 7.507812 -7.625 7.269531 -7.53125 7 -7.53125 C 6.875 -7.53125 6.628906 -7.59375 6.265625 -7.71875 C 5.898438 -7.851562 5.65625 -7.921875 5.53125 -7.921875 C 5.3125 -7.921875 5.160156 -7.882812 5.078125 -7.8125 C 4.859375 -7.644531 4.59375 -7.296875 4.28125 -6.765625 C 4.039062 -6.367188 3.921875 -6.003906 3.921875 -5.671875 L 3.984375 -3.734375 L 4 -1.421875 C 4.019531 -1.148438 4.050781 -0.976562 4.09375 -0.90625 C 4.125 -0.84375 4.203125 -0.773438 4.328125 -0.703125 C 5.171875 -0.628906 5.671875 -0.578125 5.828125 -0.546875 C 5.941406 -0.535156 6.023438 -0.53125 6.078125 -0.53125 C 6.410156 -0.519531 6.644531 -0.472656 6.78125 -0.390625 C 6.84375 -0.347656 6.875 -0.285156 6.875 -0.203125 C 6.875 -0.160156 6.84375 -0.0976562 6.78125 -0.015625 L 5.484375 -0.03125 L 5 -0.046875 L 4.28125 -0.03125 L 3.09375 -0.03125 L 2.453125 0 Z M 0.484375 0.03125 "/></g></g></g><g fill="#d8c3a5" fill-opacity="1"><g transform="translate(167.408818, 74.676241)"><g><path d="M 0.46875 -0.40625 C 0.59375 -0.488281 0.765625 -0.546875 0.984375 -0.578125 C 1.296875 -0.617188 1.535156 -0.679688 1.703125 -0.765625 C 1.847656 -0.890625 1.941406 -1.0625 1.984375 -1.28125 C 2.046875 -1.5625 2.078125 -2.546875 2.078125 -4.234375 C 2.078125 -5.898438 2.023438 -6.972656 1.921875 -7.453125 C 1.742188 -7.566406 1.519531 -7.65625 1.25 -7.71875 C 1.164062 -7.726562 0.988281 -7.769531 0.71875 -7.84375 L 0.71875 -8.234375 C 1.175781 -8.359375 1.546875 -8.523438 1.828125 -8.734375 C 2.117188 -8.953125 2.515625 -9.375 3.015625 -10 L 3.09375 -10 C 3.132812 -10 3.207031 -10.003906 3.3125 -10.015625 C 3.375 -10.003906 3.425781 -9.984375 3.46875 -9.953125 L 3.453125 -8.625 C 3.453125 -8.351562 3.457031 -8.0625 3.46875 -7.75 C 4.3125 -8.507812 5.0625 -9.039062 5.71875 -9.34375 C 6.175781 -9.539062 6.6875 -9.640625 7.25 -9.640625 C 7.9375 -9.640625 8.476562 -9.507812 8.875 -9.25 C 9.269531 -9 9.644531 -8.535156 10 -7.859375 C 10.695312 -8.546875 11.328125 -9.023438 11.890625 -9.296875 C 12.460938 -9.578125 13.035156 -9.71875 13.609375 -9.71875 C 14.484375 -9.71875 15.203125 -9.429688 15.765625 -8.859375 C 16.316406 -8.285156 16.601562 -7.4375 16.625 -6.3125 L 16.625 -1.546875 C 16.613281 -1.222656 16.679688 -0.976562 16.828125 -0.8125 C 16.890625 -0.789062 17.128906 -0.722656 17.546875 -0.609375 C 17.804688 -0.535156 17.957031 -0.476562 18 -0.4375 C 18.039062 -0.40625 18.0625 -0.351562 18.0625 -0.28125 C 18.0625 -0.195312 18.039062 -0.0976562 18 0.015625 L 17.921875 0.015625 L 16.734375 -0.046875 C 16.597656 -0.0546875 16.375 -0.0625 16.0625 -0.0625 C 15.6875 -0.0625 15.164062 -0.046875 14.5 -0.015625 L 13.90625 -0.015625 C 13.820312 -0.015625 13.65625 -0.0078125 13.40625 0 C 13.394531 -0.0703125 13.390625 -0.132812 13.390625 -0.1875 C 13.390625 -0.25 13.414062 -0.328125 13.46875 -0.421875 C 13.675781 -0.515625 13.960938 -0.585938 14.328125 -0.640625 C 14.703125 -0.703125 14.929688 -0.804688 15.015625 -0.953125 C 15.109375 -1.109375 15.15625 -1.71875 15.15625 -2.78125 C 15.15625 -5.082031 15.128906 -6.414062 15.078125 -6.78125 C 14.984375 -7.375 14.734375 -7.832031 14.328125 -8.15625 C 13.929688 -8.488281 13.425781 -8.65625 12.8125 -8.65625 C 12.34375 -8.65625 11.882812 -8.53125 11.4375 -8.28125 C 11 -8.039062 10.566406 -7.675781 10.140625 -7.1875 L 10.125 -6.90625 L 10.125 -5.109375 L 10.078125 -3.71875 C 10.078125 -2.300781 10.085938 -1.492188 10.109375 -1.296875 C 10.140625 -1.097656 10.207031 -0.953125 10.3125 -0.859375 C 10.414062 -0.773438 10.722656 -0.695312 11.234375 -0.625 C 11.460938 -0.59375 11.640625 -0.5625 11.765625 -0.53125 C 11.859375 -0.457031 11.90625 -0.359375 11.90625 -0.234375 C 11.90625 -0.128906 11.867188 -0.0546875 11.796875 -0.015625 L 11.59375 -0.015625 L 11.015625 -0.03125 L 7.609375 -0.03125 L 6.671875 -0.015625 C 6.648438 -0.140625 6.640625 -0.226562 6.640625 -0.28125 L 6.65625 -0.421875 C 6.832031 -0.515625 7.15625 -0.601562 7.625 -0.6875 C 7.863281 -0.726562 8.113281 -0.796875 8.375 -0.890625 C 8.414062 -0.929688 8.445312 -0.984375 8.46875 -1.046875 C 8.507812 -1.148438 8.539062 -1.460938 8.5625 -1.984375 L 8.609375 -3.328125 L 8.59375 -4.875 L 8.609375 -5.71875 C 8.609375 -6.675781 8.410156 -7.375 8.015625 -7.8125 C 7.628906 -8.257812 7.140625 -8.484375 6.546875 -8.484375 C 5.992188 -8.484375 5.4375 -8.347656 4.875 -8.078125 C 4.3125 -7.804688 3.847656 -7.4375 3.484375 -6.96875 C 3.472656 -6.75 3.46875 -6.550781 3.46875 -6.375 L 3.515625 -2.453125 C 3.523438 -1.585938 3.570312 -1.09375 3.65625 -0.96875 C 3.75 -0.851562 3.953125 -0.769531 4.265625 -0.71875 C 4.765625 -0.65625 5.09375 -0.570312 5.25 -0.46875 C 5.3125 -0.414062 5.34375 -0.34375 5.34375 -0.25 C 5.34375 -0.1875 5.34375 -0.113281 5.34375 -0.03125 C 4.445312 -0.09375 3.847656 -0.125 3.546875 -0.125 C 3.234375 -0.125 2.953125 -0.117188 2.703125 -0.109375 L 2.125 -0.078125 L 1.75 -0.078125 L 0.4375 -0.03125 C 0.425781 -0.0820312 0.421875 -0.128906 0.421875 -0.171875 C 0.421875 -0.210938 0.4375 -0.289062 0.46875 -0.40625 Z M 0.46875 -0.40625 "/></g></g></g><g fill="#d8c3a5" fill-opacity="1"><g transform="translate(190.342045, 74.676241)"><g><path d="M 9.265625 -6.171875 L 4.578125 -6.140625 L 3.6875 -6.140625 C 3.320312 -6.140625 2.957031 -6.125 2.59375 -6.09375 C 2.519531 -5.863281 2.484375 -5.707031 2.484375 -5.625 L 2.5 -5.5 L 2.5 -5.390625 L 2.484375 -4.8125 C 2.484375 -4.332031 2.628906 -3.75 2.921875 -3.0625 C 3.222656 -2.375 3.65625 -1.847656 4.21875 -1.484375 C 4.78125 -1.117188 5.476562 -0.925781 6.3125 -0.90625 C 6.75 -0.925781 7.097656 -0.976562 7.359375 -1.0625 C 7.628906 -1.144531 8.007812 -1.34375 8.5 -1.65625 L 9.34375 -2.359375 L 9.40625 -1.890625 C 9.40625 -1.828125 9.398438 -1.765625 9.390625 -1.703125 C 9.046875 -1.265625 8.601562 -0.875 8.0625 -0.53125 C 7.519531 -0.195312 6.972656 0.046875 6.421875 0.203125 C 6.160156 0.265625 5.722656 0.296875 5.109375 0.296875 C 4.554688 0.296875 4.007812 0.1875 3.46875 -0.03125 C 2.675781 -0.375 2.050781 -0.925781 1.59375 -1.6875 C 1.132812 -2.445312 0.90625 -3.367188 0.90625 -4.453125 C 0.90625 -4.796875 0.96875 -5.238281 1.09375 -5.78125 C 1.226562 -6.320312 1.460938 -6.894531 1.796875 -7.5 C 2.023438 -7.914062 2.304688 -8.253906 2.640625 -8.515625 C 3.097656 -8.890625 3.503906 -9.148438 3.859375 -9.296875 C 4.367188 -9.515625 4.957031 -9.625 5.625 -9.625 C 6.351562 -9.625 6.945312 -9.488281 7.40625 -9.21875 C 8.03125 -8.875 8.492188 -8.421875 8.796875 -7.859375 C 9.109375 -7.304688 9.265625 -6.800781 9.265625 -6.34375 Z M 2.734375 -6.59375 L 3.28125 -6.59375 C 3.6875 -6.59375 4.875 -6.65625 6.84375 -6.78125 C 7.15625 -6.800781 7.347656 -6.832031 7.421875 -6.875 C 7.554688 -7.03125 7.625 -7.164062 7.625 -7.28125 C 7.625 -7.519531 7.546875 -7.789062 7.390625 -8.09375 C 7.234375 -8.40625 6.992188 -8.644531 6.671875 -8.8125 C 6.347656 -8.976562 5.972656 -9.0625 5.546875 -9.0625 C 4.640625 -9.0625 3.914062 -8.722656 3.375 -8.046875 C 2.945312 -7.535156 2.734375 -7.050781 2.734375 -6.59375 Z M 2.734375 -6.59375 "/></g></g></g><g fill="#d8c3a5" fill-opacity="1"><g transform="translate(204.780706, 74.676241)"><g><path d="M 0.4375 -0.375 C 0.632812 -0.425781 0.863281 -0.472656 1.125 -0.515625 C 1.613281 -0.585938 1.90625 -0.671875 2 -0.765625 C 2.101562 -0.859375 2.15625 -1.070312 2.15625 -1.40625 L 2.171875 -1.828125 C 2.179688 -1.984375 2.1875 -2.179688 2.1875 -2.421875 L 2.171875 -6.015625 C 2.171875 -6.492188 2.109375 -6.804688 1.984375 -6.953125 C 1.765625 -7.171875 1.375 -7.320312 0.8125 -7.40625 L 0.8125 -7.828125 C 1.375 -7.984375 1.8125 -8.1875 2.125 -8.4375 C 2.5625 -8.789062 2.929688 -9.265625 3.234375 -9.859375 L 3.640625 -9.859375 C 3.660156 -9.484375 3.671875 -9.21875 3.671875 -9.0625 L 3.671875 -8.296875 L 3.6875 -8.09375 C 3.78125 -8.15625 3.890625 -8.234375 4.015625 -8.328125 C 4.484375 -8.671875 4.960938 -8.953125 5.453125 -9.171875 C 5.941406 -9.398438 6.378906 -9.554688 6.765625 -9.640625 C 7.003906 -9.703125 7.273438 -9.734375 7.578125 -9.734375 C 8.222656 -9.734375 8.773438 -9.5625 9.234375 -9.21875 C 9.691406 -8.875 9.988281 -8.46875 10.125 -8 C 10.257812 -7.539062 10.328125 -6.625 10.328125 -5.25 L 10.328125 -3.46875 C 10.328125 -3.425781 10.320312 -3.269531 10.3125 -3 C 10.300781 -2.738281 10.296875 -2.4375 10.296875 -2.09375 C 10.296875 -1.550781 10.320312 -1.203125 10.375 -1.046875 C 10.40625 -0.953125 10.503906 -0.851562 10.671875 -0.75 C 11.421875 -0.644531 11.859375 -0.523438 11.984375 -0.390625 L 11.984375 -0.296875 C 11.984375 -0.210938 11.960938 -0.113281 11.921875 0 L 11.6875 0 L 10.140625 -0.015625 L 8.625 0.015625 C 8.0625 0.0234375 7.539062 0.0195312 7.0625 0 L 7 -0.25 C 7 -0.289062 7.023438 -0.351562 7.078125 -0.4375 C 7.285156 -0.53125 7.582031 -0.59375 7.96875 -0.625 C 8.195312 -0.632812 8.351562 -0.65625 8.4375 -0.6875 C 8.519531 -0.71875 8.625 -0.78125 8.75 -0.875 C 8.84375 -1.0625 8.890625 -1.21875 8.890625 -1.34375 C 8.890625 -1.394531 8.882812 -1.503906 8.875 -1.671875 C 8.851562 -2.035156 8.835938 -2.929688 8.828125 -4.359375 L 8.828125 -4.96875 L 8.84375 -5.90625 C 8.84375 -6.90625 8.640625 -7.597656 8.234375 -7.984375 C 7.828125 -8.367188 7.285156 -8.5625 6.609375 -8.5625 C 6.085938 -8.5625 5.578125 -8.441406 5.078125 -8.203125 C 4.578125 -7.972656 4.09375 -7.628906 3.625 -7.171875 C 3.613281 -6.796875 3.609375 -6.476562 3.609375 -6.21875 L 3.640625 -3.625 C 3.640625 -2.28125 3.660156 -1.453125 3.703125 -1.140625 C 3.710938 -1.015625 3.738281 -0.929688 3.78125 -0.890625 C 3.84375 -0.828125 3.96875 -0.773438 4.15625 -0.734375 C 4.34375 -0.691406 4.554688 -0.632812 4.796875 -0.5625 C 5.046875 -0.5 5.210938 -0.457031 5.296875 -0.4375 C 5.453125 -0.40625 5.554688 -0.328125 5.609375 -0.203125 L 5.59375 0.015625 L 4.359375 0.015625 L 1.84375 -0.015625 C 1.25 0.00390625 0.875 0.015625 0.71875 0.015625 L 0.4375 0.015625 L 0.40625 -0.140625 C 0.40625 -0.191406 0.414062 -0.269531 0.4375 -0.375 Z M 0.4375 -0.375 "/></g></g></g><g fill="#d8c3a5" fill-opacity="1"><g transform="translate(221.465864, 74.676241)"><g><path d="M 3.34375 -11.5625 L 3.703125 -11.546875 L 3.75 -10.4375 L 3.734375 -9 C 3.878906 -8.988281 3.972656 -8.984375 4.015625 -8.984375 C 4.210938 -8.984375 4.597656 -9 5.171875 -9.03125 C 5.535156 -9.050781 5.882812 -9.0625 6.21875 -9.0625 C 6.375 -9.0625 6.609375 -9.0625 6.921875 -9.0625 C 6.941406 -8.90625 6.953125 -8.78125 6.953125 -8.6875 C 6.953125 -8.582031 6.925781 -8.421875 6.875 -8.203125 L 6.6875 -8.203125 L 4.875 -8.140625 L 3.96875 -8.125 L 3.75 -8.09375 C 3.6875 -7.90625 3.65625 -7.679688 3.65625 -7.421875 L 3.703125 -5.671875 L 3.671875 -2.578125 C 3.671875 -1.765625 3.773438 -1.222656 3.984375 -0.953125 C 4.191406 -0.679688 4.5 -0.546875 4.90625 -0.546875 C 5.101562 -0.546875 5.484375 -0.609375 6.046875 -0.734375 C 6.222656 -0.773438 6.453125 -0.90625 6.734375 -1.125 L 6.84375 -1.125 C 6.914062 -1.125 6.972656 -1.101562 7.015625 -1.0625 C 7.054688 -1.019531 7.078125 -0.960938 7.078125 -0.890625 L 7.0625 -0.8125 C 6.726562 -0.4375 6.34375 -0.164062 5.90625 0 C 5.476562 0.164062 4.90625 0.25 4.1875 0.25 C 3.675781 0.25 3.253906 0.132812 2.921875 -0.09375 C 2.597656 -0.332031 2.390625 -0.613281 2.296875 -0.9375 C 2.203125 -1.257812 2.15625 -1.957031 2.15625 -3.03125 L 2.203125 -5.671875 L 2.1875 -6.921875 L 2.1875 -7.390625 C 2.1875 -7.609375 2.179688 -7.828125 2.171875 -8.046875 L 1.96875 -8.0625 L 1 -8.03125 L 0.90625 -8.015625 C 0.820312 -8.015625 0.757812 -8.035156 0.71875 -8.078125 C 0.675781 -8.117188 0.65625 -8.164062 0.65625 -8.21875 C 0.65625 -8.3125 0.679688 -8.382812 0.734375 -8.4375 C 0.796875 -8.5 0.976562 -8.59375 1.28125 -8.71875 C 1.476562 -8.800781 1.710938 -8.960938 1.984375 -9.203125 C 2.253906 -9.441406 2.484375 -9.707031 2.671875 -10 C 2.765625 -10.15625 2.894531 -10.453125 3.0625 -10.890625 C 3.1875 -11.203125 3.28125 -11.425781 3.34375 -11.5625 Z M 3.34375 -11.5625 "/></g></g></g><g fill="#d8c3a5" fill-opacity="1"><g transform="translate(232.909196, 74.676241)"><g><path d="M 9.265625 -6.171875 L 4.578125 -6.140625 L 3.6875 -6.140625 C 3.320312 -6.140625 2.957031 -6.125 2.59375 -6.09375 C 2.519531 -5.863281 2.484375 -5.707031 2.484375 -5.625 L 2.5 -5.5 L 2.5 -5.390625 L 2.484375 -4.8125 C 2.484375 -4.332031 2.628906 -3.75 2.921875 -3.0625 C 3.222656 -2.375 3.65625 -1.847656 4.21875 -1.484375 C 4.78125 -1.117188 5.476562 -0.925781 6.3125 -0.90625 C 6.75 -0.925781 7.097656 -0.976562 7.359375 -1.0625 C 7.628906 -1.144531 8.007812 -1.34375 8.5 -1.65625 L 9.34375 -2.359375 L 9.40625 -1.890625 C 9.40625 -1.828125 9.398438 -1.765625 9.390625 -1.703125 C 9.046875 -1.265625 8.601562 -0.875 8.0625 -0.53125 C 7.519531 -0.195312 6.972656 0.046875 6.421875 0.203125 C 6.160156 0.265625 5.722656 0.296875 5.109375 0.296875 C 4.554688 0.296875 4.007812 0.1875 3.46875 -0.03125 C 2.675781 -0.375 2.050781 -0.925781 1.59375 -1.6875 C 1.132812 -2.445312 0.90625 -3.367188 0.90625 -4.453125 C 0.90625 -4.796875 0.96875 -5.238281 1.09375 -5.78125 C 1.226562 -6.320312 1.460938 -6.894531 1.796875 -7.5 C 2.023438 -7.914062 2.304688 -8.253906 2.640625 -8.515625 C 3.097656 -8.890625 3.503906 -9.148438 3.859375 -9.296875 C 4.367188 -9.515625 4.957031 -9.625 5.625 -9.625 C 6.351562 -9.625 6.945312 -9.488281 7.40625 -9.21875 C 8.03125 -8.875 8.492188 -8.421875 8.796875 -7.859375 C 9.109375 -7.304688 9.265625 -6.800781 9.265625 -6.34375 Z M 2.734375 -6.59375 L 3.28125 -6.59375 C 3.6875 -6.59375 4.875 -6.65625 6.84375 -6.78125 C 7.15625 -6.800781 7.347656 -6.832031 7.421875 -6.875 C 7.554688 -7.03125 7.625 -7.164062 7.625 -7.28125 C 7.625 -7.519531 7.546875 -7.789062 7.390625 -8.09375 C 7.234375 -8.40625 6.992188 -8.644531 6.671875 -8.8125 C 6.347656 -8.976562 5.972656 -9.0625 5.546875 -9.0625 C 4.640625 -9.0625 3.914062 -8.722656 3.375 -8.046875 C 2.945312 -7.535156 2.734375 -7.050781 2.734375 -6.59375 Z M 3.859375 -11.515625 L 5.3125 -13.609375 C 5.726562 -14.222656 6.144531 -14.671875 6.5625 -14.953125 C 6.726562 -15.066406 6.914062 -15.125 7.125 -15.125 C 7.332031 -15.125 7.5 -15.0625 7.625 -14.9375 C 7.75 -14.820312 7.8125 -14.6875 7.8125 -14.53125 C 7.8125 -14.382812 7.753906 -14.226562 7.640625 -14.0625 C 7.535156 -13.90625 7.273438 -13.6875 6.859375 -13.40625 L 4.109375 -11.515625 L 3.984375 -11.5 Z M 3.859375 -11.515625 "/></g></g></g><g fill="#d8c3a5" fill-opacity="1"><g transform="translate(247.347857, 74.676241)"><g><path d="M 9.265625 -6.171875 L 4.578125 -6.140625 L 3.6875 -6.140625 C 3.320312 -6.140625 2.957031 -6.125 2.59375 -6.09375 C 2.519531 -5.863281 2.484375 -5.707031 2.484375 -5.625 L 2.5 -5.5 L 2.5 -5.390625 L 2.484375 -4.8125 C 2.484375 -4.332031 2.628906 -3.75 2.921875 -3.0625 C 3.222656 -2.375 3.65625 -1.847656 4.21875 -1.484375 C 4.78125 -1.117188 5.476562 -0.925781 6.3125 -0.90625 C 6.75 -0.925781 7.097656 -0.976562 7.359375 -1.0625 C 7.628906 -1.144531 8.007812 -1.34375 8.5 -1.65625 L 9.34375 -2.359375 L 9.40625 -1.890625 C 9.40625 -1.828125 9.398438 -1.765625 9.390625 -1.703125 C 9.046875 -1.265625 8.601562 -0.875 8.0625 -0.53125 C 7.519531 -0.195312 6.972656 0.046875 6.421875 0.203125 C 6.160156 0.265625 5.722656 0.296875 5.109375 0.296875 C 4.554688 0.296875 4.007812 0.1875 3.46875 -0.03125 C 2.675781 -0.375 2.050781 -0.925781 1.59375 -1.6875 C 1.132812 -2.445312 0.90625 -3.367188 0.90625 -4.453125 C 0.90625 -4.796875 0.96875 -5.238281 1.09375 -5.78125 C 1.226562 -6.320312 1.460938 -6.894531 1.796875 -7.5 C 2.023438 -7.914062 2.304688 -8.253906 2.640625 -8.515625 C 3.097656 -8.890625 3.503906 -9.148438 3.859375 -9.296875 C 4.367188 -9.515625 4.957031 -9.625 5.625 -9.625 C 6.351562 -9.625 6.945312 -9.488281 7.40625 -9.21875 C 8.03125 -8.875 8.492188 -8.421875 8.796875 -7.859375 C 9.109375 -7.304688 9.265625 -6.800781 9.265625 -6.34375 Z M 2.734375 -6.59375 L 3.28125 -6.59375 C 3.6875 -6.59375 4.875 -6.65625 6.84375 -6.78125 C 7.15625 -6.800781 7.347656 -6.832031 7.421875 -6.875 C 7.554688 -7.03125 7.625 -7.164062 7.625 -7.28125 C 7.625 -7.519531 7.546875 -7.789062 7.390625 -8.09375 C 7.234375 -8.40625 6.992188 -8.644531 6.671875 -8.8125 C 6.347656 -8.976562 5.972656 -9.0625 5.546875 -9.0625 C 4.640625 -9.0625 3.914062 -8.722656 3.375 -8.046875 C 2.945312 -7.535156 2.734375 -7.050781 2.734375 -6.59375 Z M 2.734375 -6.59375 "/></g></g></g><g fill="#d8c3a5" fill-opacity="1"><g transform="translate(261.786519, 74.676241)"><g><path d="M 1.703125 -2.96875 C 1.984375 -2.226562 2.203125 -1.75 2.359375 -1.53125 C 2.648438 -1.082031 3 -0.734375 3.40625 -0.484375 C 3.820312 -0.242188 4.273438 -0.125 4.765625 -0.125 C 5.210938 -0.125 5.648438 -0.316406 6.078125 -0.703125 C 6.390625 -0.992188 6.546875 -1.328125 6.546875 -1.703125 C 6.546875 -2.210938 6.363281 -2.679688 6 -3.109375 C 5.632812 -3.535156 4.9375 -3.941406 3.90625 -4.328125 C 2.882812 -4.710938 2.195312 -5.125 1.84375 -5.5625 C 1.5 -6 1.328125 -6.5 1.328125 -7.0625 C 1.328125 -7.59375 1.46875 -8.054688 1.75 -8.453125 C 2.039062 -8.859375 2.4375 -9.164062 2.9375 -9.375 C 3.445312 -9.582031 3.921875 -9.6875 4.359375 -9.6875 C 4.910156 -9.6875 5.40625 -9.644531 5.84375 -9.5625 C 6.28125 -9.476562 6.660156 -9.34375 6.984375 -9.15625 C 7.046875 -8.757812 7.097656 -8.175781 7.140625 -7.40625 L 7.15625 -7.03125 C 7.0625 -7.019531 6.976562 -7.015625 6.90625 -7.015625 L 6.734375 -7.015625 C 6.503906 -7.671875 6.148438 -8.1875 5.671875 -8.5625 C 5.191406 -8.9375 4.71875 -9.125 4.25 -9.125 C 3.78125 -9.125 3.398438 -8.984375 3.109375 -8.703125 C 2.828125 -8.421875 2.6875 -8.046875 2.6875 -7.578125 C 2.6875 -7.234375 2.800781 -6.921875 3.03125 -6.640625 C 3.257812 -6.367188 3.804688 -6.054688 4.671875 -5.703125 C 5.535156 -5.359375 6.164062 -5.035156 6.5625 -4.734375 C 6.957031 -4.429688 7.25 -4.066406 7.4375 -3.640625 C 7.625 -3.210938 7.71875 -2.800781 7.71875 -2.40625 C 7.71875 -1.875 7.535156 -1.375 7.171875 -0.90625 C 6.816406 -0.4375 6.375 -0.109375 5.84375 0.078125 C 5.3125 0.273438 4.832031 0.375 4.40625 0.375 C 3.414062 0.375 2.503906 0.191406 1.671875 -0.171875 C 1.597656 -0.234375 1.554688 -0.351562 1.546875 -0.53125 C 1.546875 -0.59375 1.535156 -0.703125 1.515625 -0.859375 C 1.390625 -1.921875 1.328125 -2.546875 1.328125 -2.734375 C 1.328125 -2.828125 1.347656 -2.890625 1.390625 -2.921875 C 1.429688 -2.953125 1.535156 -2.96875 1.703125 -2.96875 Z M 1.703125 -2.96875 "/></g></g></g><g fill="#d8c3a5" fill-opacity="1"><g transform="translate(274.984926, 74.676241)"><g/></g></g><g fill="#d8c3a5" fill-opacity="1"><g transform="translate(285.433707, 74.676241)"><g><path d="M 9.515625 -1.59375 C 9.554688 -1.488281 9.578125 -1.414062 9.578125 -1.375 C 9.578125 -1.25 9.484375 -1.039062 9.296875 -0.75 C 9.054688 -0.351562 8.789062 -0.0664062 8.5 0.109375 C 8.3125 0.222656 8.050781 0.28125 7.71875 0.28125 C 7.15625 0.28125 6.734375 0.109375 6.453125 -0.234375 C 6.285156 -0.429688 6.164062 -0.796875 6.09375 -1.328125 L 4.78125 -0.40625 C 4.320312 -0.144531 3.972656 0.0195312 3.734375 0.09375 C 3.335938 0.195312 2.867188 0.25 2.328125 0.25 C 1.929688 0.25 1.617188 0.128906 1.390625 -0.109375 C 1.160156 -0.347656 1.046875 -0.65625 1.046875 -1.03125 C 1.046875 -1.570312 1.375 -2.210938 2.03125 -2.953125 C 2.6875 -3.703125 3.582031 -4.316406 4.71875 -4.796875 C 5.507812 -5.128906 5.992188 -5.34375 6.171875 -5.4375 C 6.191406 -5.695312 6.203125 -5.976562 6.203125 -6.28125 C 6.203125 -7.269531 6.0625 -7.941406 5.78125 -8.296875 C 5.507812 -8.648438 5.113281 -8.828125 4.59375 -8.828125 C 4.0625 -8.828125 3.5625 -8.613281 3.09375 -8.1875 C 2.800781 -7.925781 2.582031 -7.425781 2.4375 -6.6875 C 2.382812 -6.488281 2.296875 -6.269531 2.171875 -6.03125 C 1.828125 -5.820312 1.554688 -5.71875 1.359375 -5.71875 C 1.179688 -5.71875 1.023438 -5.765625 0.890625 -5.859375 C 0.804688 -5.921875 0.765625 -5.984375 0.765625 -6.046875 C 0.765625 -6.253906 0.984375 -6.710938 1.421875 -7.421875 C 1.859375 -8.140625 2.40625 -8.675781 3.0625 -9.03125 C 3.71875 -9.382812 4.289062 -9.5625 4.78125 -9.5625 C 5.457031 -9.5625 5.957031 -9.5 6.28125 -9.375 C 6.613281 -9.257812 6.90625 -9.046875 7.15625 -8.734375 C 7.40625 -8.429688 7.554688 -8.101562 7.609375 -7.75 C 7.640625 -7.570312 7.65625 -6.957031 7.65625 -5.90625 L 7.625 -4.046875 L 7.625 -2.6875 C 7.625 -2.507812 7.625 -2.359375 7.625 -2.234375 C 7.613281 -2.003906 7.609375 -1.835938 7.609375 -1.734375 C 7.609375 -1.472656 7.679688 -1.265625 7.828125 -1.109375 C 7.972656 -0.953125 8.148438 -0.875 8.359375 -0.875 C 8.648438 -0.875 8.898438 -1.023438 9.109375 -1.328125 L 9.25 -1.515625 C 9.289062 -1.535156 9.378906 -1.5625 9.515625 -1.59375 Z M 6.078125 -1.9375 C 6.128906 -2.925781 6.15625 -3.625 6.15625 -4.03125 C 6.15625 -4.238281 6.144531 -4.519531 6.125 -4.875 C 5.601562 -4.6875 5.046875 -4.398438 4.453125 -4.015625 C 3.867188 -3.640625 3.40625 -3.203125 3.0625 -2.703125 C 2.8125 -2.347656 2.6875 -2.007812 2.6875 -1.6875 C 2.6875 -1.382812 2.789062 -1.128906 3 -0.921875 C 3.207031 -0.722656 3.46875 -0.625 3.78125 -0.625 C 4.019531 -0.625 4.3125 -0.707031 4.65625 -0.875 C 5.113281 -1.101562 5.585938 -1.457031 6.078125 -1.9375 Z M 6.078125 -1.9375 "/></g></g></g><g fill="#d8c3a5" fill-opacity="1"><g transform="translate(299.626632, 74.676241)"><g><path d="M 0.484375 0.03125 L 0.4375 -0.109375 C 0.4375 -0.171875 0.46875 -0.253906 0.53125 -0.359375 L 1.234375 -0.5 L 2.203125 -0.671875 C 2.273438 -0.710938 2.328125 -0.769531 2.359375 -0.84375 C 2.410156 -0.945312 2.4375 -1.25 2.4375 -1.75 C 2.4375 -4.394531 2.421875 -5.921875 2.390625 -6.328125 C 2.359375 -6.742188 2.285156 -7.003906 2.171875 -7.109375 C 2.066406 -7.222656 1.785156 -7.3125 1.328125 -7.375 C 1.066406 -7.414062 0.859375 -7.46875 0.703125 -7.53125 L 0.75 -7.875 C 1.570312 -8.207031 2.125 -8.5 2.40625 -8.75 C 2.789062 -9.09375 3.117188 -9.550781 3.390625 -10.125 L 3.796875 -10.109375 C 3.835938 -9.722656 3.859375 -8.859375 3.859375 -7.515625 L 3.84375 -7.3125 C 3.84375 -7.269531 3.851562 -7.195312 3.875 -7.09375 C 4.164062 -7.632812 4.535156 -8.128906 4.984375 -8.578125 L 5.25 -8.84375 C 5.363281 -8.96875 5.472656 -9.066406 5.578125 -9.140625 C 6.117188 -9.460938 6.519531 -9.625 6.78125 -9.625 C 7.125 -9.625 7.40625 -9.507812 7.625 -9.28125 C 7.84375 -9.050781 7.953125 -8.769531 7.953125 -8.4375 C 7.953125 -8.175781 7.875 -7.96875 7.71875 -7.8125 C 7.507812 -7.625 7.269531 -7.53125 7 -7.53125 C 6.875 -7.53125 6.628906 -7.59375 6.265625 -7.71875 C 5.898438 -7.851562 5.65625 -7.921875 5.53125 -7.921875 C 5.3125 -7.921875 5.160156 -7.882812 5.078125 -7.8125 C 4.859375 -7.644531 4.59375 -7.296875 4.28125 -6.765625 C 4.039062 -6.367188 3.921875 -6.003906 3.921875 -5.671875 L 3.984375 -3.734375 L 4 -1.421875 C 4.019531 -1.148438 4.050781 -0.976562 4.09375 -0.90625 C 4.125 -0.84375 4.203125 -0.773438 4.328125 -0.703125 C 5.171875 -0.628906 5.671875 -0.578125 5.828125 -0.546875 C 5.941406 -0.535156 6.023438 -0.53125 6.078125 -0.53125 C 6.410156 -0.519531 6.644531 -0.472656 6.78125 -0.390625 C 6.84375 -0.347656 6.875 -0.285156 6.875 -0.203125 C 6.875 -0.160156 6.84375 -0.0976562 6.78125 -0.015625 L 5.484375 -0.03125 L 5 -0.046875 L 4.28125 -0.03125 L 3.09375 -0.03125 L 2.453125 0 Z M 0.484375 0.03125 "/></g></g></g><g fill="#d8c3a5" fill-opacity="1"><g transform="translate(312.555988, 74.676241)"><g><path d="M 3.34375 -11.5625 L 3.703125 -11.546875 L 3.75 -10.4375 L 3.734375 -9 C 3.878906 -8.988281 3.972656 -8.984375 4.015625 -8.984375 C 4.210938 -8.984375 4.597656 -9 5.171875 -9.03125 C 5.535156 -9.050781 5.882812 -9.0625 6.21875 -9.0625 C 6.375 -9.0625 6.609375 -9.0625 6.921875 -9.0625 C 6.941406 -8.90625 6.953125 -8.78125 6.953125 -8.6875 C 6.953125 -8.582031 6.925781 -8.421875 6.875 -8.203125 L 6.6875 -8.203125 L 4.875 -8.140625 L 3.96875 -8.125 L 3.75 -8.09375 C 3.6875 -7.90625 3.65625 -7.679688 3.65625 -7.421875 L 3.703125 -5.671875 L 3.671875 -2.578125 C 3.671875 -1.765625 3.773438 -1.222656 3.984375 -0.953125 C 4.191406 -0.679688 4.5 -0.546875 4.90625 -0.546875 C 5.101562 -0.546875 5.484375 -0.609375 6.046875 -0.734375 C 6.222656 -0.773438 6.453125 -0.90625 6.734375 -1.125 L 6.84375 -1.125 C 6.914062 -1.125 6.972656 -1.101562 7.015625 -1.0625 C 7.054688 -1.019531 7.078125 -0.960938 7.078125 -0.890625 L 7.0625 -0.8125 C 6.726562 -0.4375 6.34375 -0.164062 5.90625 0 C 5.476562 0.164062 4.90625 0.25 4.1875 0.25 C 3.675781 0.25 3.253906 0.132812 2.921875 -0.09375 C 2.597656 -0.332031 2.390625 -0.613281 2.296875 -0.9375 C 2.203125 -1.257812 2.15625 -1.957031 2.15625 -3.03125 L 2.203125 -5.671875 L 2.1875 -6.921875 L 2.1875 -7.390625 C 2.1875 -7.609375 2.179688 -7.828125 2.171875 -8.046875 L 1.96875 -8.0625 L 1 -8.03125 L 0.90625 -8.015625 C 0.820312 -8.015625 0.757812 -8.035156 0.71875 -8.078125 C 0.675781 -8.117188 0.65625 -8.164062 0.65625 -8.21875 C 0.65625 -8.3125 0.679688 -8.382812 0.734375 -8.4375 C 0.796875 -8.5 0.976562 -8.59375 1.28125 -8.71875 C 1.476562 -8.800781 1.710938 -8.960938 1.984375 -9.203125 C 2.253906 -9.441406 2.484375 -9.707031 2.671875 -10 C 2.765625 -10.15625 2.894531 -10.453125 3.0625 -10.890625 C 3.1875 -11.203125 3.28125 -11.425781 3.34375 -11.5625 Z M 3.34375 -11.5625 "/></g></g></g><g fill="#d8c3a5" fill-opacity="1"><g transform="translate(323.999337, 74.676241)"><g><path d="M 1.65625 -14.390625 C 1.65625 -14.640625 1.753906 -14.859375 1.953125 -15.046875 C 2.160156 -15.234375 2.40625 -15.328125 2.6875 -15.328125 C 2.96875 -15.328125 3.21875 -15.222656 3.4375 -15.015625 C 3.65625 -14.804688 3.765625 -14.582031 3.765625 -14.34375 C 3.765625 -14.09375 3.65625 -13.859375 3.4375 -13.640625 C 3.21875 -13.429688 2.96875 -13.328125 2.6875 -13.328125 C 2.394531 -13.328125 2.148438 -13.425781 1.953125 -13.625 C 1.753906 -13.820312 1.65625 -14.078125 1.65625 -14.390625 Z M 0.671875 -8.328125 L 0.6875 -8.65625 C 1.195312 -8.8125 1.472656 -8.898438 1.515625 -8.921875 C 1.796875 -9.046875 2.085938 -9.234375 2.390625 -9.484375 C 2.703125 -9.742188 2.960938 -10.035156 3.171875 -10.359375 C 3.265625 -10.367188 3.335938 -10.375 3.390625 -10.375 L 3.53125 -10.375 C 3.5625 -10 3.578125 -9.722656 3.578125 -9.546875 C 3.578125 -9.503906 3.570312 -9.328125 3.5625 -9.015625 L 3.5625 -5.03125 L 3.53125 -1.46875 C 3.519531 -1.175781 3.566406 -0.972656 3.671875 -0.859375 C 3.773438 -0.742188 4.078125 -0.617188 4.578125 -0.484375 C 4.890625 -0.390625 5.125 -0.3125 5.28125 -0.25 C 5.300781 -0.195312 5.3125 -0.148438 5.3125 -0.109375 C 5.3125 -0.0664062 5.289062 -0.0078125 5.25 0.0625 C 4.945312 0.0507812 4.554688 0.03125 4.078125 0 C 3.429688 -0.0507812 3.003906 -0.078125 2.796875 -0.078125 C 2.691406 -0.078125 2.066406 -0.0546875 0.921875 -0.015625 C 0.691406 -0.015625 0.46875 0 0.25 0.03125 C 0.207031 0.03125 0.144531 0.0195312 0.0625 0 C 0.0195312 -0.0507812 0 -0.0976562 0 -0.140625 C 0 -0.242188 0.0703125 -0.328125 0.21875 -0.390625 C 0.25 -0.410156 0.648438 -0.503906 1.421875 -0.671875 C 1.671875 -0.710938 1.832031 -0.789062 1.90625 -0.90625 C 2.039062 -1.0625 2.109375 -1.320312 2.109375 -1.6875 C 2.117188 -2.289062 2.125 -3.9375 2.125 -6.625 C 2.125 -7.164062 2.101562 -7.5 2.0625 -7.625 C 2.019531 -7.71875 1.914062 -7.828125 1.75 -7.953125 C 1.582031 -8.078125 1.222656 -8.203125 0.671875 -8.328125 Z M 0.671875 -8.328125 "/></g></g></g><g fill="#d8c3a5" fill-opacity="1"><g transform="translate(333.944988, 74.676241)"><g><path d="M 1.703125 -2.96875 C 1.984375 -2.226562 2.203125 -1.75 2.359375 -1.53125 C 2.648438 -1.082031 3 -0.734375 3.40625 -0.484375 C 3.820312 -0.242188 4.273438 -0.125 4.765625 -0.125 C 5.210938 -0.125 5.648438 -0.316406 6.078125 -0.703125 C 6.390625 -0.992188 6.546875 -1.328125 6.546875 -1.703125 C 6.546875 -2.210938 6.363281 -2.679688 6 -3.109375 C 5.632812 -3.535156 4.9375 -3.941406 3.90625 -4.328125 C 2.882812 -4.710938 2.195312 -5.125 1.84375 -5.5625 C 1.5 -6 1.328125 -6.5 1.328125 -7.0625 C 1.328125 -7.59375 1.46875 -8.054688 1.75 -8.453125 C 2.039062 -8.859375 2.4375 -9.164062 2.9375 -9.375 C 3.445312 -9.582031 3.921875 -9.6875 4.359375 -9.6875 C 4.910156 -9.6875 5.40625 -9.644531 5.84375 -9.5625 C 6.28125 -9.476562 6.660156 -9.34375 6.984375 -9.15625 C 7.046875 -8.757812 7.097656 -8.175781 7.140625 -7.40625 L 7.15625 -7.03125 C 7.0625 -7.019531 6.976562 -7.015625 6.90625 -7.015625 L 6.734375 -7.015625 C 6.503906 -7.671875 6.148438 -8.1875 5.671875 -8.5625 C 5.191406 -8.9375 4.71875 -9.125 4.25 -9.125 C 3.78125 -9.125 3.398438 -8.984375 3.109375 -8.703125 C 2.828125 -8.421875 2.6875 -8.046875 2.6875 -7.578125 C 2.6875 -7.234375 2.800781 -6.921875 3.03125 -6.640625 C 3.257812 -6.367188 3.804688 -6.054688 4.671875 -5.703125 C 5.535156 -5.359375 6.164062 -5.035156 6.5625 -4.734375 C 6.957031 -4.429688 7.25 -4.066406 7.4375 -3.640625 C 7.625 -3.210938 7.71875 -2.800781 7.71875 -2.40625 C 7.71875 -1.875 7.535156 -1.375 7.171875 -0.90625 C 6.816406 -0.4375 6.375 -0.109375 5.84375 0.078125 C 5.3125 0.273438 4.832031 0.375 4.40625 0.375 C 3.414062 0.375 2.503906 0.191406 1.671875 -0.171875 C 1.597656 -0.234375 1.554688 -0.351562 1.546875 -0.53125 C 1.546875 -0.59375 1.535156 -0.703125 1.515625 -0.859375 C 1.390625 -1.921875 1.328125 -2.546875 1.328125 -2.734375 C 1.328125 -2.828125 1.347656 -2.890625 1.390625 -2.921875 C 1.429688 -2.953125 1.535156 -2.96875 1.703125 -2.96875 Z M 1.703125 -2.96875 "/></g></g></g><g fill="#d8c3a5" fill-opacity="1"><g transform="translate(347.143396, 74.676241)"><g><path d="M 9.515625 -1.59375 C 9.554688 -1.488281 9.578125 -1.414062 9.578125 -1.375 C 9.578125 -1.25 9.484375 -1.039062 9.296875 -0.75 C 9.054688 -0.351562 8.789062 -0.0664062 8.5 0.109375 C 8.3125 0.222656 8.050781 0.28125 7.71875 0.28125 C 7.15625 0.28125 6.734375 0.109375 6.453125 -0.234375 C 6.285156 -0.429688 6.164062 -0.796875 6.09375 -1.328125 L 4.78125 -0.40625 C 4.320312 -0.144531 3.972656 0.0195312 3.734375 0.09375 C 3.335938 0.195312 2.867188 0.25 2.328125 0.25 C 1.929688 0.25 1.617188 0.128906 1.390625 -0.109375 C 1.160156 -0.347656 1.046875 -0.65625 1.046875 -1.03125 C 1.046875 -1.570312 1.375 -2.210938 2.03125 -2.953125 C 2.6875 -3.703125 3.582031 -4.316406 4.71875 -4.796875 C 5.507812 -5.128906 5.992188 -5.34375 6.171875 -5.4375 C 6.191406 -5.695312 6.203125 -5.976562 6.203125 -6.28125 C 6.203125 -7.269531 6.0625 -7.941406 5.78125 -8.296875 C 5.507812 -8.648438 5.113281 -8.828125 4.59375 -8.828125 C 4.0625 -8.828125 3.5625 -8.613281 3.09375 -8.1875 C 2.800781 -7.925781 2.582031 -7.425781 2.4375 -6.6875 C 2.382812 -6.488281 2.296875 -6.269531 2.171875 -6.03125 C 1.828125 -5.820312 1.554688 -5.71875 1.359375 -5.71875 C 1.179688 -5.71875 1.023438 -5.765625 0.890625 -5.859375 C 0.804688 -5.921875 0.765625 -5.984375 0.765625 -6.046875 C 0.765625 -6.253906 0.984375 -6.710938 1.421875 -7.421875 C 1.859375 -8.140625 2.40625 -8.675781 3.0625 -9.03125 C 3.71875 -9.382812 4.289062 -9.5625 4.78125 -9.5625 C 5.457031 -9.5625 5.957031 -9.5 6.28125 -9.375 C 6.613281 -9.257812 6.90625 -9.046875 7.15625 -8.734375 C 7.40625 -8.429688 7.554688 -8.101562 7.609375 -7.75 C 7.640625 -7.570312 7.65625 -6.957031 7.65625 -5.90625 L 7.625 -4.046875 L 7.625 -2.6875 C 7.625 -2.507812 7.625 -2.359375 7.625 -2.234375 C 7.613281 -2.003906 7.609375 -1.835938 7.609375 -1.734375 C 7.609375 -1.472656 7.679688 -1.265625 7.828125 -1.109375 C 7.972656 -0.953125 8.148438 -0.875 8.359375 -0.875 C 8.648438 -0.875 8.898438 -1.023438 9.109375 -1.328125 L 9.25 -1.515625 C 9.289062 -1.535156 9.378906 -1.5625 9.515625 -1.59375 Z M 6.078125 -1.9375 C 6.128906 -2.925781 6.15625 -3.625 6.15625 -4.03125 C 6.15625 -4.238281 6.144531 -4.519531 6.125 -4.875 C 5.601562 -4.6875 5.046875 -4.398438 4.453125 -4.015625 C 3.867188 -3.640625 3.40625 -3.203125 3.0625 -2.703125 C 2.8125 -2.347656 2.6875 -2.007812 2.6875 -1.6875 C 2.6875 -1.382812 2.789062 -1.128906 3 -0.921875 C 3.207031 -0.722656 3.46875 -0.625 3.78125 -0.625 C 4.019531 -0.625 4.3125 -0.707031 4.65625 -0.875 C 5.113281 -1.101562 5.585938 -1.457031 6.078125 -1.9375 Z M 6.078125 -1.9375 "/></g></g></g><g fill="#d8c3a5" fill-opacity="1"><g transform="translate(361.336338, 74.676241)"><g><path d="M 0.4375 -0.375 C 0.632812 -0.425781 0.863281 -0.472656 1.125 -0.515625 C 1.613281 -0.585938 1.90625 -0.671875 2 -0.765625 C 2.101562 -0.859375 2.15625 -1.070312 2.15625 -1.40625 L 2.171875 -1.828125 C 2.179688 -1.984375 2.1875 -2.179688 2.1875 -2.421875 L 2.171875 -6.015625 C 2.171875 -6.492188 2.109375 -6.804688 1.984375 -6.953125 C 1.765625 -7.171875 1.375 -7.320312 0.8125 -7.40625 L 0.8125 -7.828125 C 1.375 -7.984375 1.8125 -8.1875 2.125 -8.4375 C 2.5625 -8.789062 2.929688 -9.265625 3.234375 -9.859375 L 3.640625 -9.859375 C 3.660156 -9.484375 3.671875 -9.21875 3.671875 -9.0625 L 3.671875 -8.296875 L 3.6875 -8.09375 C 3.78125 -8.15625 3.890625 -8.234375 4.015625 -8.328125 C 4.484375 -8.671875 4.960938 -8.953125 5.453125 -9.171875 C 5.941406 -9.398438 6.378906 -9.554688 6.765625 -9.640625 C 7.003906 -9.703125 7.273438 -9.734375 7.578125 -9.734375 C 8.222656 -9.734375 8.773438 -9.5625 9.234375 -9.21875 C 9.691406 -8.875 9.988281 -8.46875 10.125 -8 C 10.257812 -7.539062 10.328125 -6.625 10.328125 -5.25 L 10.328125 -3.46875 C 10.328125 -3.425781 10.320312 -3.269531 10.3125 -3 C 10.300781 -2.738281 10.296875 -2.4375 10.296875 -2.09375 C 10.296875 -1.550781 10.320312 -1.203125 10.375 -1.046875 C 10.40625 -0.953125 10.503906 -0.851562 10.671875 -0.75 C 11.421875 -0.644531 11.859375 -0.523438 11.984375 -0.390625 L 11.984375 -0.296875 C 11.984375 -0.210938 11.960938 -0.113281 11.921875 0 L 11.6875 0 L 10.140625 -0.015625 L 8.625 0.015625 C 8.0625 0.0234375 7.539062 0.0195312 7.0625 0 L 7 -0.25 C 7 -0.289062 7.023438 -0.351562 7.078125 -0.4375 C 7.285156 -0.53125 7.582031 -0.59375 7.96875 -0.625 C 8.195312 -0.632812 8.351562 -0.65625 8.4375 -0.6875 C 8.519531 -0.71875 8.625 -0.78125 8.75 -0.875 C 8.84375 -1.0625 8.890625 -1.21875 8.890625 -1.34375 C 8.890625 -1.394531 8.882812 -1.503906 8.875 -1.671875 C 8.851562 -2.035156 8.835938 -2.929688 8.828125 -4.359375 L 8.828125 -4.96875 L 8.84375 -5.90625 C 8.84375 -6.90625 8.640625 -7.597656 8.234375 -7.984375 C 7.828125 -8.367188 7.285156 -8.5625 6.609375 -8.5625 C 6.085938 -8.5625 5.578125 -8.441406 5.078125 -8.203125 C 4.578125 -7.972656 4.09375 -7.628906 3.625 -7.171875 C 3.613281 -6.796875 3.609375 -6.476562 3.609375 -6.21875 L 3.640625 -3.625 C 3.640625 -2.28125 3.660156 -1.453125 3.703125 -1.140625 C 3.710938 -1.015625 3.738281 -0.929688 3.78125 -0.890625 C 3.84375 -0.828125 3.96875 -0.773438 4.15625 -0.734375 C 4.34375 -0.691406 4.554688 -0.632812 4.796875 -0.5625 C 5.046875 -0.5 5.210938 -0.457031 5.296875 -0.4375 C 5.453125 -0.40625 5.554688 -0.328125 5.609375 -0.203125 L 5.59375 0.015625 L 4.359375 0.015625 L 1.84375 -0.015625 C 1.25 0.00390625 0.875 0.015625 0.71875 0.015625 L 0.4375 0.015625 L 0.40625 -0.140625 C 0.40625 -0.191406 0.414062 -0.269531 0.4375 -0.375 Z M 0.4375 -0.375 "/></g></g></g><g fill="#d8c3a5" fill-opacity="1"><g transform="translate(378.021478, 74.676241)"><g><path d="M 9.515625 -1.59375 C 9.554688 -1.488281 9.578125 -1.414062 9.578125 -1.375 C 9.578125 -1.25 9.484375 -1.039062 9.296875 -0.75 C 9.054688 -0.351562 8.789062 -0.0664062 8.5 0.109375 C 8.3125 0.222656 8.050781 0.28125 7.71875 0.28125 C 7.15625 0.28125 6.734375 0.109375 6.453125 -0.234375 C 6.285156 -0.429688 6.164062 -0.796875 6.09375 -1.328125 L 4.78125 -0.40625 C 4.320312 -0.144531 3.972656 0.0195312 3.734375 0.09375 C 3.335938 0.195312 2.867188 0.25 2.328125 0.25 C 1.929688 0.25 1.617188 0.128906 1.390625 -0.109375 C 1.160156 -0.347656 1.046875 -0.65625 1.046875 -1.03125 C 1.046875 -1.570312 1.375 -2.210938 2.03125 -2.953125 C 2.6875 -3.703125 3.582031 -4.316406 4.71875 -4.796875 C 5.507812 -5.128906 5.992188 -5.34375 6.171875 -5.4375 C 6.191406 -5.695312 6.203125 -5.976562 6.203125 -6.28125 C 6.203125 -7.269531 6.0625 -7.941406 5.78125 -8.296875 C 5.507812 -8.648438 5.113281 -8.828125 4.59375 -8.828125 C 4.0625 -8.828125 3.5625 -8.613281 3.09375 -8.1875 C 2.800781 -7.925781 2.582031 -7.425781 2.4375 -6.6875 C 2.382812 -6.488281 2.296875 -6.269531 2.171875 -6.03125 C 1.828125 -5.820312 1.554688 -5.71875 1.359375 -5.71875 C 1.179688 -5.71875 1.023438 -5.765625 0.890625 -5.859375 C 0.804688 -5.921875 0.765625 -5.984375 0.765625 -6.046875 C 0.765625 -6.253906 0.984375 -6.710938 1.421875 -7.421875 C 1.859375 -8.140625 2.40625 -8.675781 3.0625 -9.03125 C 3.71875 -9.382812 4.289062 -9.5625 4.78125 -9.5625 C 5.457031 -9.5625 5.957031 -9.5 6.28125 -9.375 C 6.613281 -9.257812 6.90625 -9.046875 7.15625 -8.734375 C 7.40625 -8.429688 7.554688 -8.101562 7.609375 -7.75 C 7.640625 -7.570312 7.65625 -6.957031 7.65625 -5.90625 L 7.625 -4.046875 L 7.625 -2.6875 C 7.625 -2.507812 7.625 -2.359375 7.625 -2.234375 C 7.613281 -2.003906 7.609375 -1.835938 7.609375 -1.734375 C 7.609375 -1.472656 7.679688 -1.265625 7.828125 -1.109375 C 7.972656 -0.953125 8.148438 -0.875 8.359375 -0.875 C 8.648438 -0.875 8.898438 -1.023438 9.109375 -1.328125 L 9.25 -1.515625 C 9.289062 -1.535156 9.378906 -1.5625 9.515625 -1.59375 Z M 6.078125 -1.9375 C 6.128906 -2.925781 6.15625 -3.625 6.15625 -4.03125 C 6.15625 -4.238281 6.144531 -4.519531 6.125 -4.875 C 5.601562 -4.6875 5.046875 -4.398438 4.453125 -4.015625 C 3.867188 -3.640625 3.40625 -3.203125 3.0625 -2.703125 C 2.8125 -2.347656 2.6875 -2.007812 2.6875 -1.6875 C 2.6875 -1.382812 2.789062 -1.128906 3 -0.921875 C 3.207031 -0.722656 3.46875 -0.625 3.78125 -0.625 C 4.019531 -0.625 4.3125 -0.707031 4.65625 -0.875 C 5.113281 -1.101562 5.585938 -1.457031 6.078125 -1.9375 Z M 6.078125 -1.9375 "/></g></g></g><g fill="#d8c3a5" fill-opacity="1"><g transform="translate(392.214455, 74.676241)"><g><path d="M 0.609375 -14.5 L 0.609375 -14.765625 C 0.828125 -14.828125 1.066406 -14.898438 1.328125 -14.984375 C 1.722656 -15.109375 2.300781 -15.296875 3.0625 -15.546875 L 3.609375 -15.546875 C 3.617188 -15.171875 3.625 -14.957031 3.625 -14.90625 C 3.625 -8.5 3.601562 -4.679688 3.5625 -3.453125 C 3.539062 -2.722656 3.53125 -2.335938 3.53125 -2.296875 C 3.53125 -1.421875 3.566406 -0.929688 3.640625 -0.828125 C 3.734375 -0.691406 4.019531 -0.59375 4.5 -0.53125 C 4.976562 -0.476562 5.257812 -0.425781 5.34375 -0.375 C 5.40625 -0.34375 5.4375 -0.285156 5.4375 -0.203125 C 5.4375 -0.117188 5.421875 -0.0625 5.390625 -0.03125 C 5.359375 0 5.296875 0.015625 5.203125 0.015625 C 5.140625 0.015625 4.726562 0.00390625 3.96875 -0.015625 L 2.4375 -0.0625 L 0.46875 0.015625 C 0.34375 0.0234375 0.25 0.00390625 0.1875 -0.046875 C 0.132812 -0.0859375 0.109375 -0.140625 0.109375 -0.203125 C 0.109375 -0.285156 0.132812 -0.34375 0.1875 -0.375 C 0.238281 -0.414062 0.519531 -0.476562 1.03125 -0.5625 C 1.539062 -0.644531 1.832031 -0.710938 1.90625 -0.765625 C 1.988281 -0.828125 2.039062 -0.960938 2.0625 -1.171875 C 2.09375 -1.453125 2.109375 -2.242188 2.109375 -3.546875 L 2.09375 -6.234375 L 2.125 -9.015625 L 2.125 -11.8125 L 2.15625 -13.171875 C 2.15625 -13.453125 2.109375 -13.648438 2.015625 -13.765625 C 1.929688 -13.890625 1.75 -14.007812 1.46875 -14.125 C 1.050781 -14.300781 0.765625 -14.425781 0.609375 -14.5 Z M 0.609375 -14.5 "/></g></g></g><g fill="#d8c3a5" fill-opacity="1"><g transform="translate(402.160105, 74.676241)"><g><path d="M 9.265625 -6.171875 L 4.578125 -6.140625 L 3.6875 -6.140625 C 3.320312 -6.140625 2.957031 -6.125 2.59375 -6.09375 C 2.519531 -5.863281 2.484375 -5.707031 2.484375 -5.625 L 2.5 -5.5 L 2.5 -5.390625 L 2.484375 -4.8125 C 2.484375 -4.332031 2.628906 -3.75 2.921875 -3.0625 C 3.222656 -2.375 3.65625 -1.847656 4.21875 -1.484375 C 4.78125 -1.117188 5.476562 -0.925781 6.3125 -0.90625 C 6.75 -0.925781 7.097656 -0.976562 7.359375 -1.0625 C 7.628906 -1.144531 8.007812 -1.34375 8.5 -1.65625 L 9.34375 -2.359375 L 9.40625 -1.890625 C 9.40625 -1.828125 9.398438 -1.765625 9.390625 -1.703125 C 9.046875 -1.265625 8.601562 -0.875 8.0625 -0.53125 C 7.519531 -0.195312 6.972656 0.046875 6.421875 0.203125 C 6.160156 0.265625 5.722656 0.296875 5.109375 0.296875 C 4.554688 0.296875 4.007812 0.1875 3.46875 -0.03125 C 2.675781 -0.375 2.050781 -0.925781 1.59375 -1.6875 C 1.132812 -2.445312 0.90625 -3.367188 0.90625 -4.453125 C 0.90625 -4.796875 0.96875 -5.238281 1.09375 -5.78125 C 1.226562 -6.320312 1.460938 -6.894531 1.796875 -7.5 C 2.023438 -7.914062 2.304688 -8.253906 2.640625 -8.515625 C 3.097656 -8.890625 3.503906 -9.148438 3.859375 -9.296875 C 4.367188 -9.515625 4.957031 -9.625 5.625 -9.625 C 6.351562 -9.625 6.945312 -9.488281 7.40625 -9.21875 C 8.03125 -8.875 8.492188 -8.421875 8.796875 -7.859375 C 9.109375 -7.304688 9.265625 -6.800781 9.265625 -6.34375 Z M 2.734375 -6.59375 L 3.28125 -6.59375 C 3.6875 -6.59375 4.875 -6.65625 6.84375 -6.78125 C 7.15625 -6.800781 7.347656 -6.832031 7.421875 -6.875 C 7.554688 -7.03125 7.625 -7.164062 7.625 -7.28125 C 7.625 -7.519531 7.546875 -7.789062 7.390625 -8.09375 C 7.234375 -8.40625 6.992188 -8.644531 6.671875 -8.8125 C 6.347656 -8.976562 5.972656 -9.0625 5.546875 -9.0625 C 4.640625 -9.0625 3.914062 -8.722656 3.375 -8.046875 C 2.945312 -7.535156 2.734375 -7.050781 2.734375 -6.59375 Z M 2.734375 -6.59375 "/></g></g></g><g fill="#d8c3a5" fill-opacity="1"><g transform="translate(416.598749, 74.676241)"><g><path d="M 1.703125 -2.96875 C 1.984375 -2.226562 2.203125 -1.75 2.359375 -1.53125 C 2.648438 -1.082031 3 -0.734375 3.40625 -0.484375 C 3.820312 -0.242188 4.273438 -0.125 4.765625 -0.125 C 5.210938 -0.125 5.648438 -0.316406 6.078125 -0.703125 C 6.390625 -0.992188 6.546875 -1.328125 6.546875 -1.703125 C 6.546875 -2.210938 6.363281 -2.679688 6 -3.109375 C 5.632812 -3.535156 4.9375 -3.941406 3.90625 -4.328125 C 2.882812 -4.710938 2.195312 -5.125 1.84375 -5.5625 C 1.5 -6 1.328125 -6.5 1.328125 -7.0625 C 1.328125 -7.59375 1.46875 -8.054688 1.75 -8.453125 C 2.039062 -8.859375 2.4375 -9.164062 2.9375 -9.375 C 3.445312 -9.582031 3.921875 -9.6875 4.359375 -9.6875 C 4.910156 -9.6875 5.40625 -9.644531 5.84375 -9.5625 C 6.28125 -9.476562 6.660156 -9.34375 6.984375 -9.15625 C 7.046875 -8.757812 7.097656 -8.175781 7.140625 -7.40625 L 7.15625 -7.03125 C 7.0625 -7.019531 6.976562 -7.015625 6.90625 -7.015625 L 6.734375 -7.015625 C 6.503906 -7.671875 6.148438 -8.1875 5.671875 -8.5625 C 5.191406 -8.9375 4.71875 -9.125 4.25 -9.125 C 3.78125 -9.125 3.398438 -8.984375 3.109375 -8.703125 C 2.828125 -8.421875 2.6875 -8.046875 2.6875 -7.578125 C 2.6875 -7.234375 2.800781 -6.921875 3.03125 -6.640625 C 3.257812 -6.367188 3.804688 -6.054688 4.671875 -5.703125 C 5.535156 -5.359375 6.164062 -5.035156 6.5625 -4.734375 C 6.957031 -4.429688 7.25 -4.066406 7.4375 -3.640625 C 7.625 -3.210938 7.71875 -2.800781 7.71875 -2.40625 C 7.71875 -1.875 7.535156 -1.375 7.171875 -0.90625 C 6.816406 -0.4375 6.375 -0.109375 5.84375 0.078125 C 5.3125 0.273438 4.832031 0.375 4.40625 0.375 C 3.414062 0.375 2.503906 0.191406 1.671875 -0.171875 C 1.597656 -0.234375 1.554688 -0.351562 1.546875 -0.53125 C 1.546875 -0.59375 1.535156 -0.703125 1.515625 -0.859375 C 1.390625 -1.921875 1.328125 -2.546875 1.328125 -2.734375 C 1.328125 -2.828125 1.347656 -2.890625 1.390625 -2.921875 C 1.429688 -2.953125 1.535156 -2.96875 1.703125 -2.96875 Z M 1.703125 -2.96875 "/></g></g></g></g></g></svg>